<svg width="91" height="159" viewBox="0 0 91 159" fill="none" xmlns="http://www.w3.org/2000/svg">
<path d="M81.2651 1.52174C80.8681 0.906978 80.048 0.730409 79.4332 1.12736C78.8184 1.52431 78.6419 2.34446 79.0388 2.95922L81.2651 1.52174ZM84.4516 48.3177L85.5974 48.9832L85.5974 48.9832L84.4516 48.3177ZM42.6804 64.9779L43.5081 63.9432L43.5081 63.9432L42.6804 64.9779ZM39.0586 46.869L40.1419 47.6319L40.1419 47.6319L39.0586 46.869ZM54.9945 43.7301L54.5575 44.981L54.9945 43.7301ZM61.2722 91.7791L62.3858 92.4971L62.3858 92.4971L61.2722 91.7791ZM21.1912 105.3L21.9669 104.226L21.9669 104.226L21.1912 105.3ZM18.0523 91.7791L19.2546 92.3359L18.0523 91.7791ZM36.8855 140.311L35.9271 139.396L35.9271 139.396L36.8855 140.311ZM1.875 152.384L1.06334 151.336C0.681248 151.632 0.490746 152.113 0.566271 152.591C0.641796 153.068 0.971361 153.466 1.4262 153.63L1.875 152.384ZM12.3447 145.946C12.9231 145.498 13.0286 144.665 12.5804 144.087C12.1321 143.508 11.2998 143.403 10.7214 143.851L12.3447 145.946ZM13.4988 157.976C14.1873 158.224 14.9464 157.867 15.1943 157.178C15.4421 156.49 15.0849 155.731 14.3964 155.483L13.4988 157.976ZM80.1519 2.24048C79.0388 2.95922 79.0386 2.95893 79.0385 2.95874C79.0386 2.9588 79.0385 2.9587 79.0386 2.95883C79.0387 2.95908 79.0391 2.95972 79.0398 2.96074C79.0411 2.96277 79.0434 2.96633 79.0466 2.9714C79.0531 2.98153 79.0634 2.9977 79.0773 3.0198C79.1051 3.06399 79.1475 3.13186 79.2031 3.22251C79.3142 3.40382 79.4781 3.67613 79.6838 4.03217C80.0954 4.74441 80.674 5.79067 81.3328 7.11278C82.6518 9.75964 84.2856 13.4981 85.5488 17.8653C88.084 26.6304 89.0718 37.7249 83.3058 47.6522L85.5974 48.9832C91.8844 38.1586 90.7223 26.2145 88.0945 17.129C86.7761 12.5709 85.0751 8.68098 83.7046 5.93084C83.0187 4.55445 82.4139 3.46004 81.9783 2.70625C81.7604 2.32927 81.5848 2.03721 81.4623 1.83741C81.401 1.7375 81.353 1.66064 81.3197 1.60773C81.3031 1.58127 81.2901 1.5608 81.2809 1.54643C81.2763 1.53925 81.2727 1.53359 81.27 1.52947C81.2687 1.52741 81.2676 1.52573 81.2668 1.52444C81.2664 1.5238 81.266 1.52312 81.2658 1.5228C81.2654 1.52222 81.2651 1.52174 80.1519 2.24048ZM83.3058 47.6522C78.8029 55.405 71.5428 61.7474 64.0101 64.9861C56.4582 68.233 48.9131 68.2673 43.5081 63.9432L41.8527 66.0125C48.3138 71.1815 57.0113 70.8798 65.0568 67.4206C73.1217 63.9531 80.814 57.2188 85.5974 48.9832L83.3058 47.6522ZM43.5081 63.9432C41.924 62.676 39.9999 60.0289 39.038 56.9156C38.0853 53.8318 38.1298 50.4891 40.1419 47.6319L37.9753 46.1061C35.3494 49.8349 35.3939 54.098 36.5061 57.6978C37.6092 61.2681 39.815 64.3824 41.8527 66.0125L43.5081 63.9432ZM40.1419 47.6319C42.0446 44.9301 44.5438 43.92 47.1183 43.7392C49.7505 43.5543 52.4477 44.2441 54.5575 44.981L55.4314 42.4792C53.195 41.6981 50.096 40.8735 46.9326 41.0957C43.7116 41.3219 40.4159 42.6403 37.9753 46.1061L40.1419 47.6319ZM54.5575 44.981C62.9673 47.9185 66.9349 55.3031 67.5161 64.1624C68.0993 73.0522 65.2261 83.2019 60.1586 91.0611L62.3858 92.4971C67.7287 84.2108 70.7846 73.5035 70.1604 63.9889C69.5342 54.4438 65.1578 45.8767 55.4314 42.4792L54.5575 44.981ZM60.1586 91.0611C55.8123 97.8018 49.3467 103.402 42.41 106.141C35.5021 108.868 28.2165 108.74 21.9669 104.226L20.4154 106.375C27.5577 111.533 35.8367 111.585 43.3833 108.605C50.9013 105.637 57.7803 99.6399 62.3858 92.4971L60.1586 91.0611ZM21.9669 104.226C20.0069 102.811 18.7897 101.073 18.3127 99.132C17.8348 97.1874 18.0666 94.9011 19.2546 92.3359L16.85 91.2223C15.4622 94.2186 15.0903 97.1235 15.7393 99.7644C16.3892 102.409 18.0293 104.651 20.4154 106.375L21.9669 104.226ZM19.2546 92.3359C20.341 89.9903 22.014 88.7392 24.0482 88.1884C26.1465 87.6203 28.709 87.7808 31.4937 88.4769L32.1364 85.9061C29.1262 85.1535 26.0626 84.8976 23.3557 85.6305C20.5849 86.3807 18.274 88.1477 16.85 91.2223L19.2546 92.3359ZM31.4937 88.4769C40.8196 90.8084 45.1824 99.9091 45.5112 110.626C45.8392 121.317 42.0838 132.946 35.9271 139.396L37.844 141.226C44.6077 134.14 48.5039 121.756 48.16 110.545C47.8168 99.3593 43.1842 88.668 32.1364 85.9061L31.4937 88.4769ZM35.9271 139.396C31.148 144.403 22.7402 147.355 15.2856 149.039C11.5977 149.871 8.21803 150.378 5.75988 150.676C4.53173 150.825 3.53595 150.921 2.84956 150.98C2.50642 151.01 2.24077 151.03 2.06225 151.043C1.973 151.049 1.90554 151.054 1.86108 151.057C1.83885 151.058 1.82238 151.059 1.8118 151.06C1.80652 151.06 1.80271 151.061 1.80039 151.061C1.79923 151.061 1.79845 151.061 1.79804 151.061C1.79784 151.061 1.79781 151.061 1.79771 151.061C1.79778 151.061 1.79795 151.061 1.875 152.384C1.95205 153.706 1.95241 153.706 1.95286 153.706C1.95313 153.706 1.95368 153.706 1.95423 153.706C1.95534 153.706 1.95682 153.706 1.95868 153.706C1.9624 153.706 1.96762 153.705 1.97432 153.705C1.98774 153.704 2.00709 153.703 2.03222 153.701C2.0825 153.698 2.15592 153.693 2.25129 153.686C2.44203 153.673 2.72059 153.651 3.07728 153.621C3.79056 153.559 4.81694 153.46 6.07876 153.307C8.60056 153.001 12.0721 152.481 15.8692 151.624C23.3846 149.927 32.4821 146.843 37.844 141.226L35.9271 139.396ZM2.68666 153.431L12.3447 145.946L10.7214 143.851L1.06334 151.336L2.68666 153.431ZM1.4262 153.63L13.4988 157.976L14.3964 155.483L2.3238 151.137L1.4262 153.63Z" fill="#6C5FBC"/>
</svg>
