<svg width="209" height="206" viewBox="0 0 209 206" fill="none" xmlns="http://www.w3.org/2000/svg">
<rect x="1.13892" y="0.138919" width="206.709" height="205.202" rx="16.6204" fill="white" stroke="#EDF2F7" stroke-width="0.277838"/>
<path d="M83.876 184.057V184.528H80.6136V184.19L82.6356 181.061H83.1038L82.6014 181.967L81.2648 184.057H83.876ZM83.2465 181.061V185.576H82.6728V181.061H83.2465ZM85.7678 185.576H84.825L84.8312 185.089H85.7678C86.0903 185.089 86.359 185.022 86.5741 184.888C86.7891 184.751 86.9503 184.561 87.0578 184.317C87.1674 184.071 87.2222 183.784 87.2222 183.455V183.179C87.2222 182.921 87.1912 182.691 87.1292 182.491C87.0671 182.288 86.9762 182.117 86.8563 181.979C86.7364 181.838 86.5896 181.732 86.4159 181.659C86.2443 181.587 86.0469 181.551 85.8236 181.551H84.8064V181.061H85.8236C86.1192 181.061 86.389 181.111 86.633 181.21C86.8769 181.307 87.0868 181.449 87.2625 181.635C87.4403 181.819 87.5768 182.042 87.6719 182.305C87.767 182.565 87.8145 182.859 87.8145 183.185V183.455C87.8145 183.782 87.767 184.076 87.6719 184.339C87.5768 184.599 87.4393 184.822 87.2594 185.006C87.0816 185.19 86.8666 185.331 86.6144 185.431C86.3642 185.528 86.082 185.576 85.7678 185.576ZM85.1444 181.061V185.576H84.5459V181.061H85.1444Z" fill="#828282"/>
<path d="M115.52 184.108L115.061 183.991L115.287 181.742H117.604V182.273H115.774L115.638 183.501C115.72 183.453 115.825 183.409 115.951 183.367C116.079 183.326 116.226 183.305 116.391 183.305C116.6 183.305 116.787 183.341 116.953 183.414C117.118 183.484 117.259 183.585 117.374 183.718C117.492 183.85 117.582 184.009 117.644 184.195C117.706 184.381 117.737 184.589 117.737 184.819C117.737 185.036 117.707 185.235 117.647 185.417C117.589 185.599 117.502 185.758 117.384 185.895C117.266 186.029 117.117 186.134 116.937 186.208C116.759 186.282 116.549 186.32 116.308 186.32C116.126 186.32 115.953 186.295 115.79 186.245C115.628 186.193 115.484 186.116 115.356 186.013C115.229 185.907 115.126 185.777 115.045 185.622C114.967 185.465 114.917 185.281 114.897 185.07H115.442C115.467 185.239 115.517 185.382 115.591 185.498C115.666 185.614 115.763 185.701 115.883 185.761C116.005 185.819 116.146 185.848 116.308 185.848C116.444 185.848 116.565 185.824 116.67 185.777C116.776 185.729 116.865 185.661 116.937 185.572C117.009 185.483 117.064 185.376 117.101 185.25C117.141 185.124 117.16 184.982 117.16 184.825C117.16 184.682 117.141 184.55 117.101 184.428C117.062 184.306 117.003 184.199 116.925 184.108C116.848 184.017 116.754 183.947 116.642 183.898C116.531 183.846 116.403 183.82 116.258 183.82C116.066 183.82 115.92 183.846 115.821 183.898C115.724 183.949 115.623 184.02 115.52 184.108ZM119.737 186.258H118.795L118.801 185.771H119.737C120.06 185.771 120.329 185.703 120.544 185.569C120.759 185.433 120.92 185.242 121.028 184.998C121.137 184.752 121.192 184.465 121.192 184.136V183.86C121.192 183.602 121.161 183.372 121.099 183.172C121.037 182.969 120.946 182.799 120.826 182.66C120.706 182.52 120.559 182.413 120.386 182.341C120.214 182.268 120.017 182.232 119.793 182.232H118.776V181.742H119.793C120.089 181.742 120.359 181.792 120.603 181.891C120.847 181.988 121.057 182.13 121.232 182.316C121.41 182.5 121.547 182.723 121.642 182.986C121.737 183.246 121.784 183.54 121.784 183.867V184.136C121.784 184.463 121.737 184.758 121.642 185.02C121.547 185.281 121.409 185.503 121.229 185.687C121.051 185.871 120.836 186.013 120.584 186.112C120.334 186.209 120.052 186.258 119.737 186.258ZM119.114 181.742V186.258H118.516V181.742H119.114Z" fill="#828282"/>
<path d="M150.966 181.736H151.016V182.223H150.966C150.662 182.223 150.408 182.273 150.203 182.372C149.999 182.469 149.836 182.6 149.716 182.766C149.597 182.929 149.51 183.113 149.456 183.318C149.404 183.522 149.378 183.73 149.378 183.941V184.605C149.378 184.805 149.402 184.983 149.45 185.138C149.497 185.291 149.562 185.42 149.645 185.526C149.728 185.631 149.821 185.711 149.924 185.764C150.03 185.818 150.139 185.845 150.253 185.845C150.385 185.845 150.503 185.82 150.607 185.771C150.71 185.719 150.797 185.648 150.867 185.557C150.939 185.464 150.994 185.354 151.031 185.228C151.069 185.102 151.087 184.963 151.087 184.812C151.087 184.678 151.071 184.549 151.038 184.425C151.004 184.299 150.954 184.187 150.886 184.09C150.817 183.991 150.732 183.913 150.628 183.857C150.527 183.799 150.406 183.77 150.265 183.77C150.106 183.77 149.957 183.81 149.819 183.888C149.682 183.965 149.57 184.066 149.481 184.192C149.394 184.316 149.344 184.452 149.332 184.598L149.028 184.595C149.057 184.364 149.111 184.166 149.189 184.003C149.27 183.838 149.369 183.703 149.487 183.6C149.607 183.494 149.74 183.418 149.887 183.37C150.036 183.321 150.193 183.296 150.358 183.296C150.584 183.296 150.778 183.338 150.941 183.423C151.105 183.508 151.239 183.622 151.345 183.764C151.45 183.905 151.528 184.064 151.577 184.242C151.629 184.418 151.655 184.598 151.655 184.785C151.655 184.997 151.625 185.197 151.565 185.383C151.505 185.569 151.415 185.732 151.295 185.873C151.177 186.014 151.031 186.123 150.858 186.202C150.684 186.28 150.482 186.32 150.253 186.32C150.009 186.32 149.796 186.27 149.614 186.171C149.432 186.069 149.281 185.935 149.161 185.768C149.041 185.6 148.952 185.414 148.892 185.209C148.832 185.005 148.802 184.797 148.802 184.586V184.316C148.802 183.998 148.834 183.686 148.898 183.38C148.962 183.074 149.072 182.797 149.23 182.549C149.389 182.3 149.609 182.103 149.89 181.956C150.171 181.809 150.53 181.736 150.966 181.736ZM153.708 186.258H152.765L152.771 185.771H153.708C154.03 185.771 154.299 185.703 154.514 185.569C154.729 185.433 154.89 185.242 154.998 184.998C155.107 184.752 155.162 184.465 155.162 184.136V183.86C155.162 183.602 155.131 183.372 155.069 183.172C155.007 182.969 154.916 182.799 154.796 182.66C154.676 182.52 154.53 182.413 154.356 182.341C154.184 182.268 153.987 182.232 153.764 182.232H152.746V181.742H153.764C154.059 181.742 154.329 181.792 154.573 181.891C154.817 181.988 155.027 182.13 155.202 182.316C155.38 182.5 155.517 182.723 155.612 182.986C155.707 183.246 155.754 183.54 155.754 183.867V184.136C155.754 184.463 155.707 184.758 155.612 185.02C155.517 185.281 155.379 185.503 155.199 185.687C155.022 185.871 154.807 186.013 154.554 186.112C154.304 186.209 154.022 186.258 153.708 186.258ZM153.084 181.742V186.258H152.486V181.742H153.084Z" fill="#828282"/>
<path d="M183.089 181.742V182.065L181.219 186.258H180.614L182.481 182.214H180.038V181.742H183.089ZM185.114 186.258H184.171L184.178 185.771H185.114C185.437 185.771 185.705 185.703 185.92 185.569C186.136 185.433 186.297 185.242 186.404 184.998C186.514 184.752 186.569 184.465 186.569 184.136V183.86C186.569 183.602 186.538 183.372 186.476 183.172C186.414 182.969 186.323 182.799 186.203 182.66C186.083 182.52 185.936 182.413 185.762 182.341C185.591 182.268 185.393 182.232 185.17 182.232H184.153V181.742H185.17C185.466 181.742 185.735 181.792 185.979 181.891C186.223 181.988 186.433 182.13 186.609 182.316C186.787 182.5 186.923 182.723 187.018 182.986C187.113 183.246 187.161 183.54 187.161 183.867V184.136C187.161 184.463 187.113 184.758 187.018 185.02C186.923 185.281 186.786 185.503 186.606 185.687C186.428 185.871 186.213 186.013 185.961 186.112C185.711 186.209 185.428 186.258 185.114 186.258ZM184.491 181.742V186.258H183.892V181.742H184.491Z" fill="#828282"/>
<rect x="30.2422" y="174.813" width="27.7739" height="19.6592" rx="9.82962" fill="#E7E7E7" fill-opacity="0.92"/>
<path d="M42.8469 185.864V186.562H39.7581V185.966L41.2188 184.4C41.3656 184.237 41.4813 184.093 41.5661 183.969C41.6509 183.843 41.7119 183.73 41.7491 183.631C41.7884 183.53 41.808 183.434 41.808 183.343C41.808 183.206 41.7853 183.089 41.7398 182.992C41.6943 182.893 41.6271 182.816 41.5382 182.763C41.4514 182.709 41.3439 182.682 41.2157 182.682C41.0792 182.682 40.9614 182.715 40.8621 182.781C40.765 182.847 40.6905 182.939 40.6389 183.057C40.5892 183.175 40.5644 183.309 40.5644 183.457H39.6682C39.6682 183.189 39.7323 182.943 39.8605 182.719C39.9886 182.494 40.1695 182.315 40.4032 182.183C40.6368 182.048 40.9138 181.981 41.2343 181.981C41.5506 181.981 41.8173 182.033 42.0344 182.136C42.2535 182.238 42.4189 182.384 42.5306 182.577C42.6443 182.767 42.7011 182.994 42.7011 183.259C42.7011 183.408 42.6774 183.553 42.6298 183.696C42.5823 183.837 42.514 183.977 42.4251 184.118C42.3383 184.256 42.2329 184.397 42.1088 184.54C41.9848 184.682 41.8473 184.83 41.6964 184.983L40.9118 185.864H42.8469ZM44.8844 186.562H43.9013L43.9075 185.836H44.8844C45.1283 185.836 45.334 185.781 45.5015 185.672C45.669 185.56 45.7951 185.398 45.8799 185.185C45.9667 184.972 46.0101 184.714 46.0101 184.413V184.192C46.0101 183.961 45.9853 183.757 45.9357 183.581C45.8881 183.406 45.8168 183.258 45.7217 183.138C45.6266 183.018 45.5098 182.928 45.3713 182.868C45.2327 182.806 45.0735 182.775 44.8937 182.775H43.8827V182.046H44.8937C45.1955 182.046 45.4715 182.098 45.7217 182.201C45.9739 182.303 46.192 182.448 46.376 182.639C46.56 182.829 46.7017 183.056 46.8009 183.321C46.9022 183.583 46.9529 183.876 46.9529 184.199V184.413C46.9529 184.733 46.9022 185.026 46.8009 185.29C46.7017 185.555 46.56 185.782 46.376 185.972C46.1941 186.161 45.976 186.306 45.7217 186.41C45.4695 186.511 45.1904 186.562 44.8844 186.562ZM44.4285 182.046V186.562H43.4981V182.046H44.4285Z" fill="#151515"/>
<path d="M1.07397 144.582C12.144 144.582 13.2153 158.995 24.9995 158.995C36.7837 158.995 33.9269 118.031 44.9969 118.031C56.0669 118.031 49.9963 83.5159 65.3515 83.5159C80.7066 83.5159 73.5647 118.031 87.4915 118.031C101.418 118.031 99.2757 77.74 108.203 77.74C117.131 77.74 114.631 101.722 125.344 101.722C136.057 101.722 131.057 62.1661 142.484 62.1661C153.912 62.1661 152.84 79.4328 163.196 79.4328C173.552 79.4328 174.623 99.4461 188.907 99.4461C203.191 99.4461 194.263 121.753 207.833 121.753" stroke="#6C5FBC" stroke-width="1.98779" stroke-linecap="round" stroke-linejoin="round"/>
<path d="M176.583 86.8536C176.583 88.9623 174.993 90.5529 173.173 90.5529C171.352 90.5529 169.762 88.9623 169.762 86.8536C169.762 84.7448 171.352 83.1542 173.173 83.1542C174.993 83.1542 176.583 84.7448 176.583 86.8536Z" fill="#C5BFED" stroke="#6C5FBC" stroke-width="2.22012"/>
<rect x="172.555" y="64.9562" width="25.6489" height="11.9084" rx="5.95422" fill="#6C5FBC"/>
<path d="M181.199 71.6726C181.199 71.865 181.149 72.0463 181.049 72.2165C180.953 72.383 180.808 72.5218 180.616 72.6328C180.427 72.7401 180.203 72.803 179.944 72.8215V73.2711H179.589V72.816C179.219 72.7827 178.921 72.6717 178.696 72.4829C178.47 72.2905 178.353 72.0315 178.346 71.7059H179.178C179.201 71.9723 179.338 72.1333 179.589 72.1888V71.1287C179.323 71.0621 179.108 70.9955 178.945 70.9289C178.783 70.8623 178.642 70.755 178.524 70.6069C178.405 70.4589 178.346 70.2573 178.346 70.002C178.346 69.68 178.461 69.4173 178.69 69.2138C178.923 69.0103 179.223 68.8938 179.589 68.8642V68.4146H179.944V68.8642C180.3 68.8938 180.583 69.0011 180.794 69.1861C181.008 69.3711 181.128 69.6264 181.154 69.952H180.316C180.305 69.8447 180.266 69.7522 180.2 69.6745C180.137 69.5931 180.052 69.5357 179.944 69.5024V70.5514C180.222 70.6217 180.44 70.6902 180.599 70.7568C180.762 70.8197 180.903 70.9252 181.021 71.0732C181.14 71.2175 181.199 71.4173 181.199 71.6726ZM179.156 69.9631C179.156 70.0852 179.193 70.1851 179.267 70.2628C179.341 70.3368 179.449 70.3979 179.589 70.446V69.4858C179.456 69.5043 179.351 69.5542 179.273 69.6356C179.195 69.717 179.156 69.8262 179.156 69.9631ZM179.944 72.1999C180.085 72.174 180.194 72.1166 180.272 72.0278C180.353 71.939 180.394 71.8317 180.394 71.7059C180.394 71.5838 180.355 71.4857 180.277 71.4117C180.2 71.3377 180.089 71.2767 179.944 71.2286V72.1999ZM181.944 72.0001V71.3895L183.759 68.792H184.664V71.3229H185.152V72.0001H184.664V72.7882H183.887V72.0001H181.944ZM183.937 69.6245L182.799 71.3229H183.937V69.6245ZM185.647 70.7124C185.647 70.0723 185.762 69.5709 185.991 69.2083C186.224 68.8457 186.609 68.6643 187.146 68.6643C187.682 68.6643 188.065 68.8457 188.294 69.2083C188.528 69.5709 188.644 70.0723 188.644 70.7124C188.644 71.3562 188.528 71.8613 188.294 72.2276C188.065 72.5939 187.682 72.7771 187.146 72.7771C186.609 72.7771 186.224 72.5939 185.991 72.2276C185.762 71.8613 185.647 71.3562 185.647 70.7124ZM187.878 70.7124C187.878 70.4386 187.86 70.2092 187.823 70.0242C187.789 69.8355 187.719 69.6819 187.612 69.5635C187.508 69.4451 187.353 69.3859 187.146 69.3859C186.938 69.3859 186.781 69.4451 186.674 69.5635C186.57 69.6819 186.5 69.8355 186.463 70.0242C186.43 70.2092 186.413 70.4386 186.413 70.7124C186.413 70.9936 186.43 71.2304 186.463 71.4228C186.496 71.6115 186.566 71.7651 186.674 71.8835C186.781 71.9982 186.938 72.0556 187.146 72.0556C187.353 72.0556 187.51 71.9982 187.617 71.8835C187.725 71.7651 187.795 71.6115 187.828 71.4228C187.862 71.2304 187.878 70.9936 187.878 70.7124ZM190.134 71.6504C190.164 71.8132 190.23 71.939 190.334 72.0278C190.441 72.1129 190.584 72.1555 190.761 72.1555C190.991 72.1555 191.157 72.0611 191.261 71.8724C191.365 71.68 191.416 71.3581 191.416 70.9067C191.331 71.0251 191.211 71.1176 191.056 71.1842C190.904 71.2508 190.739 71.2841 190.562 71.2841C190.325 71.2841 190.11 71.236 189.918 71.1398C189.729 71.0399 189.579 70.8937 189.468 70.7013C189.357 70.5052 189.302 70.2684 189.302 69.9909C189.302 69.5801 189.424 69.2545 189.668 69.014C189.912 68.7698 190.245 68.6477 190.667 68.6477C191.193 68.6477 191.563 68.8161 191.777 69.1528C191.995 69.4895 192.105 69.9964 192.105 70.6735C192.105 71.1546 192.062 71.5486 191.977 71.8558C191.896 72.1629 191.753 72.396 191.55 72.5551C191.35 72.7142 191.076 72.7938 190.728 72.7938C190.454 72.7938 190.221 72.742 190.029 72.6384C189.836 72.531 189.688 72.3923 189.585 72.2221C189.485 72.0482 189.428 71.8576 189.413 71.6504H190.134ZM190.723 70.6513C190.915 70.6513 191.067 70.5921 191.178 70.4737C191.289 70.3553 191.344 70.1962 191.344 69.9964C191.344 69.7781 191.285 69.6097 191.167 69.4913C191.052 69.3692 190.895 69.3082 190.695 69.3082C190.495 69.3082 190.336 69.3711 190.218 69.4969C190.103 69.619 190.045 69.7818 190.045 69.9853C190.045 70.1814 190.101 70.3424 190.212 70.4682C190.327 70.5903 190.497 70.6513 190.723 70.6513Z" fill="white"/>
<line opacity="0.09" x1="1.32803" y1="138.675" x2="207.306" y2="138.675" stroke="#6C5FBC" stroke-width="0.585257" stroke-linecap="round"/>
<line opacity="0.09" x1="2.00967" y1="114.018" x2="207.988" y2="114.018" stroke="#6C5FBC" stroke-width="0.585257" stroke-linecap="round"/>
<line opacity="0.09" x1="1.32778" y1="88.6357" x2="207.306" y2="88.6357" stroke="#6C5FBC" stroke-width="0.585257" stroke-linecap="round"/>
<g clip-path="url(#clip0_161_2)">
<rect x="26.8733" y="13.1875" width="37.9194" height="18.2662" rx="9.13309" fill="#6C5FBC"/>
<path d="M43.1004 19.8965V24.3206H42.5186V21.0217L41.0482 24.3206H40.639L39.1622 21.0153V24.3206H38.5804V19.8965H39.207L40.8436 23.5534L42.4803 19.8965H43.1004ZM43.8697 22.556C43.8697 22.198 43.9421 21.8848 44.0871 21.6162C44.232 21.3435 44.4301 21.1325 44.6816 20.9833C44.9373 20.8342 45.2208 20.7596 45.5319 20.7596C45.8388 20.7596 46.1052 20.8256 46.3311 20.9578C46.5569 21.0899 46.7253 21.2561 46.8361 21.4564V20.8171H47.4243V24.3206H46.8361V23.6685C46.721 23.873 46.5484 24.0435 46.3183 24.1799C46.0924 24.312 45.8281 24.3781 45.5255 24.3781C45.2144 24.3781 44.9331 24.3014 44.6816 24.1479C44.4301 23.9945 44.232 23.7793 44.0871 23.5022C43.9421 23.2252 43.8697 22.9098 43.8697 22.556ZM46.8361 22.5624C46.8361 22.2982 46.7828 22.068 46.6763 21.872C46.5697 21.6759 46.4248 21.5267 46.2415 21.4245C46.0625 21.3179 45.8643 21.2646 45.647 21.2646C45.4296 21.2646 45.2314 21.3158 45.0524 21.4181C44.8734 21.5204 44.7306 21.6695 44.6241 21.8656C44.5175 22.0616 44.4642 22.2918 44.4642 22.556C44.4642 22.8246 44.5175 23.059 44.6241 23.2593C44.7306 23.4553 44.8734 23.6067 45.0524 23.7132C45.2314 23.8155 45.4296 23.8666 45.647 23.8666C45.8643 23.8666 46.0625 23.8155 46.2415 23.7132C46.4248 23.6067 46.5697 23.4553 46.6763 23.2593C46.7828 23.059 46.8361 22.8267 46.8361 22.5624ZM48.7079 20.2481C48.5971 20.2481 48.5033 20.2098 48.4266 20.133C48.3499 20.0563 48.3115 19.9626 48.3115 19.8517C48.3115 19.7409 48.3499 19.6472 48.4266 19.5704C48.5033 19.4937 48.5971 19.4554 48.7079 19.4554C48.8145 19.4554 48.904 19.4937 48.9764 19.5704C49.0531 19.6472 49.0915 19.7409 49.0915 19.8517C49.0915 19.9626 49.0531 20.0563 48.9764 20.133C48.904 20.2098 48.8145 20.2481 48.7079 20.2481ZM48.9892 20.8171V24.3206H48.4074V20.8171H48.9892ZM51.6877 20.7532C52.1139 20.7532 52.4592 20.8832 52.7234 21.1432C52.9877 21.3989 53.1198 21.7697 53.1198 22.2556V24.3206H52.5444V22.3387C52.5444 21.9892 52.457 21.7228 52.2823 21.5395C52.1075 21.352 51.8689 21.2582 51.5662 21.2582C51.2594 21.2582 51.0143 21.3541 50.831 21.5459C50.652 21.7377 50.5625 22.0169 50.5625 22.3834V24.3206H49.9807V20.8171H50.5625V21.3158C50.6776 21.1368 50.8332 20.9982 51.0292 20.9002C51.2295 20.8022 51.449 20.7532 51.6877 20.7532Z" fill="white"/>
<path d="M83.6842 19.5462L82.3006 24.3206H81.6019L80.4922 20.4778L79.3414 24.3206L78.6496 24.3274L77.3139 19.5462H77.9783L79.0195 23.5945L80.1703 19.5462H80.869L81.9649 23.5808L83.0129 19.5462H83.6842ZM87.8598 22.2999C87.8598 22.4186 87.8529 22.5442 87.8392 22.6766H84.839C84.8618 23.0465 84.9874 23.3365 85.2157 23.5465C85.4486 23.752 85.7295 23.8548 86.0583 23.8548C86.3277 23.8548 86.5515 23.7931 86.7296 23.6698C86.9122 23.542 87.0401 23.373 87.1131 23.1629H87.7844C87.684 23.5237 87.483 23.8182 87.1816 24.0466C86.8803 24.2703 86.5058 24.3822 86.0583 24.3822C85.7021 24.3822 85.3824 24.3023 85.0993 24.1425C84.8207 23.9826 84.6015 23.7566 84.4417 23.4643C84.2819 23.1675 84.202 22.825 84.202 22.4369C84.202 22.0487 84.2796 21.7085 84.4349 21.4162C84.5901 21.124 84.807 20.9002 85.0856 20.745C85.3687 20.5851 85.693 20.5052 86.0583 20.5052C86.4145 20.5052 86.7296 20.5828 87.0036 20.7381C87.2775 20.8934 87.4876 21.108 87.6337 21.382C87.7844 21.6514 87.8598 21.9574 87.8598 22.2999ZM87.2159 22.1697C87.2159 21.9323 87.1634 21.729 87.0583 21.5601C86.9533 21.3866 86.8095 21.2564 86.6268 21.1696C86.4487 21.0783 86.2501 21.0326 86.0309 21.0326C85.7158 21.0326 85.4464 21.1331 85.2226 21.334C85.0034 21.535 84.8778 21.8135 84.8459 22.1697H87.2159ZM92.176 22.2999C92.176 22.4186 92.1691 22.5442 92.1554 22.6766H89.1552C89.178 23.0465 89.3036 23.3365 89.5319 23.5465C89.7648 23.752 90.0457 23.8548 90.3745 23.8548C90.6439 23.8548 90.8676 23.7931 91.0457 23.6698C91.2284 23.542 91.3563 23.373 91.4293 23.1629H92.1006C92.0002 23.5237 91.7992 23.8182 91.4978 24.0466C91.1964 24.2703 90.822 24.3822 90.3745 24.3822C90.0183 24.3822 89.6986 24.3023 89.4155 24.1425C89.1369 23.9826 88.9177 23.7566 88.7579 23.4643C88.5981 23.1675 88.5182 22.825 88.5182 22.4369C88.5182 22.0487 88.5958 21.7085 88.7511 21.4162C88.9063 21.124 89.1232 20.9002 89.4018 20.745C89.6849 20.5851 90.0091 20.5052 90.3745 20.5052C90.7307 20.5052 91.0457 20.5828 91.3197 20.7381C91.5937 20.8934 91.8038 21.108 91.9499 21.382C92.1006 21.6514 92.176 21.9574 92.176 22.2999ZM91.5321 22.1697C91.5321 21.9323 91.4796 21.729 91.3745 21.5601C91.2695 21.3866 91.1257 21.2564 90.943 21.1696C90.7649 21.0783 90.5663 21.0326 90.3471 21.0326C90.032 21.0326 89.7625 21.1331 89.5388 21.334C89.3196 21.535 89.194 21.8135 89.162 22.1697H91.5321ZM95.1633 24.3206L93.6906 22.6629V24.3206H93.0672V19.2517H93.6906V22.2314L95.1359 20.5669H96.0058L94.2386 22.4369L96.0127 24.3206H95.1633ZM97.2843 19.2517V24.3206H96.661V19.2517H97.2843ZM101.648 20.5669L99.3879 26.0878H98.744L99.4838 24.2795L97.9699 20.5669H98.6618L99.8399 23.6082L101.004 20.5669H101.648Z" fill="#828282"/>
<path d="M125.083 19.5805V24.3206H124.46V20.7861L122.884 24.3206H122.446L120.864 20.7792V24.3206H120.24V19.5805H120.912L122.665 23.4986L124.419 19.5805H125.083ZM127.846 24.3822C127.494 24.3822 127.175 24.3023 126.887 24.1425C126.604 23.9826 126.38 23.7566 126.216 23.4643C126.056 23.1675 125.976 22.825 125.976 22.4369C125.976 22.0533 126.058 21.7153 126.222 21.4231C126.391 21.1263 126.62 20.9002 126.907 20.745C127.195 20.5851 127.517 20.5052 127.873 20.5052C128.229 20.5052 128.551 20.5851 128.839 20.745C129.127 20.9002 129.353 21.124 129.517 21.4162C129.686 21.7085 129.771 22.0487 129.771 22.4369C129.771 22.825 129.684 23.1675 129.51 23.4643C129.341 23.7566 129.111 23.9826 128.819 24.1425C128.526 24.3023 128.202 24.3822 127.846 24.3822ZM127.846 23.8342C128.07 23.8342 128.28 23.7817 128.476 23.6767C128.672 23.5716 128.83 23.4141 128.949 23.204C129.072 22.994 129.134 22.7382 129.134 22.4369C129.134 22.1355 129.074 21.8797 128.956 21.6697C128.837 21.4596 128.682 21.3044 128.49 21.2039C128.298 21.0989 128.09 21.0463 127.866 21.0463C127.638 21.0463 127.428 21.0989 127.236 21.2039C127.049 21.3044 126.898 21.4596 126.784 21.6697C126.67 21.8797 126.613 22.1355 126.613 22.4369C126.613 22.7428 126.668 23.0008 126.777 23.2109C126.891 23.4209 127.042 23.5785 127.229 23.6835C127.417 23.784 127.622 23.8342 127.846 23.8342ZM132.488 20.4984C132.944 20.4984 133.314 20.6376 133.597 20.9162C133.88 21.1902 134.022 21.5875 134.022 22.1081V24.3206H133.406V22.1971C133.406 21.8227 133.312 21.5372 133.125 21.3409C132.937 21.14 132.682 21.0395 132.357 21.0395C132.029 21.0395 131.766 21.1422 131.57 21.3477C131.378 21.5532 131.282 21.8523 131.282 22.2451V24.3206H130.659V20.5669H131.282V21.1011C131.405 20.9093 131.572 20.7609 131.782 20.6559C131.997 20.5509 132.232 20.4984 132.488 20.4984ZM135.869 21.0806V23.2931C135.869 23.4757 135.908 23.6059 135.985 23.6835C136.063 23.7566 136.198 23.7931 136.39 23.7931H136.849V24.3206H136.287C135.94 24.3206 135.68 24.2406 135.506 24.0808C135.332 23.921 135.246 23.6584 135.246 23.2931V21.0806H134.759V20.5669H135.246V19.6216H135.869V20.5669H136.849V21.0806H135.869ZM138.296 19.2517V24.3206H137.672V19.2517H138.296ZM142.66 20.5669L140.399 26.0878H139.755L140.495 24.2795L138.981 20.5669H139.673L140.851 23.6082L142.016 20.5669H142.66Z" fill="#828282"/>
<path d="M164.175 19.5462L162.62 22.5191V24.3206H161.997V22.5191L160.435 19.5462H161.127L162.305 21.9642L163.483 19.5462H164.175ZM168.326 22.2999C168.326 22.4186 168.319 22.5442 168.305 22.6766H165.305C165.328 23.0465 165.453 23.3365 165.682 23.5465C165.915 23.752 166.196 23.8548 166.524 23.8548C166.794 23.8548 167.018 23.7931 167.196 23.6698C167.378 23.542 167.506 23.373 167.579 23.1629H168.25C168.15 23.5237 167.949 23.8182 167.648 24.0466C167.346 24.2703 166.972 24.3822 166.524 24.3822C166.168 24.3822 165.848 24.3023 165.565 24.1425C165.287 23.9826 165.068 23.7566 164.908 23.4643C164.748 23.1675 164.668 22.825 164.668 22.4369C164.668 22.0487 164.746 21.7085 164.901 21.4162C165.056 21.124 165.273 20.9002 165.552 20.745C165.835 20.5851 166.159 20.5052 166.524 20.5052C166.881 20.5052 167.196 20.5828 167.47 20.7381C167.744 20.8934 167.954 21.108 168.1 21.382C168.25 21.6514 168.326 21.9574 168.326 22.2999ZM167.682 22.1697C167.682 21.9323 167.629 21.729 167.524 21.5601C167.419 21.3866 167.276 21.2564 167.093 21.1696C166.915 21.0783 166.716 21.0326 166.497 21.0326C166.182 21.0326 165.912 21.1331 165.689 21.334C165.469 21.535 165.344 21.8135 165.312 22.1697H167.682ZM168.984 22.43C168.984 22.0464 169.062 21.7108 169.217 21.4231C169.372 21.1308 169.585 20.9048 169.854 20.745C170.128 20.5851 170.432 20.5052 170.765 20.5052C171.094 20.5052 171.379 20.576 171.621 20.7176C171.863 20.8591 172.044 21.0372 172.163 21.2518V20.5669H172.793V24.3206H172.163V23.6219C172.039 23.8411 171.854 24.0237 171.608 24.1699C171.366 24.3114 171.083 24.3822 170.758 24.3822C170.425 24.3822 170.124 24.3 169.854 24.1356C169.585 23.9712 169.372 23.7406 169.217 23.4438C169.062 23.147 168.984 22.809 168.984 22.43ZM172.163 22.4369C172.163 22.1537 172.105 21.9071 171.991 21.6971C171.877 21.487 171.722 21.3272 171.526 21.2176C171.334 21.1034 171.121 21.0463 170.888 21.0463C170.656 21.0463 170.443 21.1011 170.251 21.2107C170.06 21.3203 169.907 21.4802 169.793 21.6902C169.678 21.9003 169.621 22.1469 169.621 22.43C169.621 22.7177 169.678 22.9689 169.793 23.1835C169.907 23.3935 170.06 23.5557 170.251 23.6698C170.443 23.7794 170.656 23.8342 170.888 23.8342C171.121 23.8342 171.334 23.7794 171.526 23.6698C171.722 23.5557 171.877 23.3935 171.991 23.1835C172.105 22.9689 172.163 22.72 172.163 22.4369ZM174.538 21.1765C174.648 20.9619 174.803 20.7952 175.004 20.6765C175.209 20.5577 175.458 20.4984 175.75 20.4984V21.1422H175.586C174.887 21.1422 174.538 21.5213 174.538 22.2793V24.3206H173.915V20.5669H174.538V21.1765ZM177.162 19.2517V24.3206H176.538V19.2517H177.162ZM181.526 20.5669L179.265 26.0878H178.621L179.361 24.2795L177.847 20.5669H178.539L179.717 23.6082L180.882 20.5669H181.526Z" fill="#828282"/>
</g>
<defs>
<clipPath id="clip0_161_2">
<rect x="26.8733" y="13.1875" width="159.389" height="18.2662" rx="9.13309" fill="white"/>
</clipPath>
</defs>
</svg>
