<svg width="894" height="492" viewBox="0 0 894 492" fill="none" xmlns="http://www.w3.org/2000/svg">
<g opacity="0.25">
<path d="M745.773 327.945C749.661 324.182 754.953 321.898 760.788 321.947C766.584 321.996 771.87 324.335 775.809 328.148" stroke="#1C186C" stroke-width="4.63957" stroke-linecap="round" stroke-linejoin="round"/>
<path d="M774.881 319.309C770.688 316.522 765.869 314.934 760.756 314.885C754.765 314.836 749.2 316.927 744.571 320.561C742.696 322.035 742.166 324.924 743.374 327.151L744.64 329.485L749.879 338.993C749.879 338.993 753.6 345.76 757.106 352.141C758.8 355.225 762.742 355.272 764.424 352.235L776.939 329.691L778.171 327.467C779.383 325.264 778.84 322.331 776.929 320.831C776.285 320.274 775.583 319.781 774.881 319.309Z" stroke="#1C186C" stroke-width="4.63957" stroke-linecap="round" stroke-linejoin="round"/>
<path d="M767.743 332.399C768.211 332.613 768.738 332.614 769.207 332.4C769.461 332.294 769.656 332.144 769.851 331.952C770.203 331.545 770.418 331.011 770.419 330.454C770.419 329.876 770.225 329.362 769.854 328.955C769.484 328.548 769.016 328.334 768.489 328.333C767.962 328.333 767.493 328.546 767.122 328.953C766.751 329.359 766.555 329.894 766.555 330.45C766.554 331.006 766.768 331.542 767.119 331.949C767.294 332.163 767.509 332.313 767.743 332.399Z" fill="#201D67"/>
<path d="M760.056 330.293C760.524 330.508 761.051 330.509 761.52 330.295C761.754 330.188 761.969 330.039 762.164 329.846C762.516 329.44 762.731 328.905 762.732 328.349C762.732 327.771 762.538 327.257 762.167 326.85C761.797 326.443 761.329 326.229 760.802 326.228C760.275 326.227 759.806 326.441 759.435 326.847C759.064 327.253 758.868 327.767 758.868 328.345C758.867 328.901 759.081 329.436 759.432 329.843C759.607 330.036 759.802 330.186 760.056 330.293Z" fill="#201D67"/>
<path d="M751.7 331.954C752.421 332.746 753.709 332.748 754.432 331.957C754.784 331.551 754.999 331.016 755 330.459C755 329.881 754.806 329.368 754.435 328.961C754.065 328.554 753.597 328.339 753.07 328.338C752.816 328.338 752.562 328.402 752.348 328.509C752.113 328.616 751.899 328.765 751.703 328.958C751.332 329.364 751.136 329.877 751.136 330.455C751.155 330.99 751.369 331.547 751.7 331.954Z" fill="#201D67"/>
<path d="M755.146 339.705C755.244 339.983 755.38 340.198 755.555 340.412C756.277 341.204 757.565 341.206 758.288 340.415C758.464 340.201 758.6 339.987 758.698 339.709C758.796 339.452 758.855 339.174 758.855 338.917C758.856 338.639 758.797 338.361 758.7 338.125C758.603 337.868 758.466 337.633 758.291 337.419C757.921 337.011 757.452 336.797 756.925 336.796C756.672 336.796 756.418 336.86 756.203 336.967C755.969 337.074 755.754 337.223 755.559 337.416C755.187 337.822 754.992 338.335 754.991 338.913C754.991 339.17 755.049 339.448 755.146 339.705Z" fill="#201D67"/>
<path d="M762.855 339.713C762.953 339.97 763.089 340.206 763.264 340.42C764.005 341.213 765.293 341.214 765.997 340.423C766.173 340.209 766.309 339.995 766.407 339.717C766.505 339.461 766.564 339.182 766.564 338.926C766.565 338.348 766.37 337.834 766 337.427C765.805 337.234 765.59 337.084 765.356 336.977C765.122 336.869 764.869 336.805 764.615 336.805C764.088 336.804 763.619 337.018 763.248 337.424C763.072 337.638 762.935 337.873 762.838 338.13C762.72 338.386 762.681 338.665 762.681 338.921C762.7 339.178 762.739 339.456 762.855 339.713Z" fill="#201D67"/>
<path d="M762.128 345.854C761.757 345.447 761.289 345.233 760.762 345.232C760.509 345.232 760.255 345.296 760.04 345.402C759.806 345.509 759.591 345.659 759.396 345.851C759.22 346.065 759.083 346.3 758.985 346.557C758.887 346.814 758.828 347.092 758.828 347.349C758.827 347.927 759.042 348.44 759.392 348.847C759.938 349.426 760.777 349.641 761.5 349.299C761.753 349.192 761.949 349.043 762.144 348.85C762.496 348.444 762.711 347.909 762.712 347.353C762.712 347.075 762.654 346.796 762.556 346.561C762.44 346.304 762.303 346.068 762.128 345.854Z" fill="#201D67"/>
<path d="M280.135 422.082C282.502 416.606 287.581 412.823 293.475 412.829C301.613 412.838 308.221 420.1 308.211 429.025C308.203 436.965 302.965 443.572 296.055 444.935C295.826 440.119 292.61 436.156 288.396 435.274C288.474 434.696 288.534 434.097 288.534 433.498C288.54 427.891 284.935 423.2 280.135 422.082Z" stroke="#1C186C" stroke-width="4.63957" stroke-linecap="round" stroke-linejoin="round"/>
<path d="M299.557 437.833C300.747 437.834 301.724 436.765 301.726 435.459C301.727 434.154 300.752 433.083 299.562 433.081C298.371 433.08 297.395 434.149 297.393 435.455C297.392 436.782 298.366 437.831 299.557 437.833Z" fill="#201D67"/>
<path d="M304.324 450.229C305.515 450.23 306.492 449.161 306.493 447.856C306.495 446.55 305.52 445.479 304.33 445.478C303.139 445.477 302.162 446.546 302.161 447.851C302.179 449.178 303.134 450.228 304.324 450.229Z" fill="#201D67"/>
<path d="M293.26 430.529C294.451 430.53 295.428 429.461 295.429 428.155C295.431 426.85 294.456 425.779 293.266 425.778C292.075 425.776 291.098 426.845 291.097 428.151C291.095 429.478 292.07 430.527 293.26 430.529Z" fill="#201D67"/>
<path d="M291.397 421.002C291.397 421.002 291.807 420.746 292.334 420.404C292.842 420.084 293.272 419.806 293.272 419.806C293.272 419.806 292.862 420.062 292.334 420.404C291.827 420.746 291.397 421.002 291.397 421.002Z" stroke="#1C186C" stroke-width="4.63957" stroke-linecap="round" stroke-linejoin="round"/>
<path d="M301.325 427.155C301.325 427.155 300.877 426.941 300.33 426.683C299.784 426.426 299.336 426.211 299.336 426.211C299.336 426.211 299.784 426.426 300.33 426.683C300.877 426.941 301.325 427.155 301.325 427.155Z" stroke="#1C186C" stroke-width="4.63957" stroke-linecap="round" stroke-linejoin="round"/>
<path d="M310.991 440.627C310.991 440.627 310.639 440.99 310.209 441.439C309.779 441.888 309.427 442.252 309.427 442.252C309.427 442.252 309.779 441.888 310.209 441.439C310.639 440.99 310.991 440.627 310.991 440.627Z" stroke="#1C186C" stroke-width="4.63957" stroke-linecap="round" stroke-linejoin="round"/>
<path d="M312.975 428.709C315.002 431.236 316.228 434.533 316.224 438.15C316.216 446.047 310.374 452.44 303.172 452.432C297.356 452.426 292.423 448.247 290.751 442.467" stroke="#1C186C" stroke-width="4.63957" stroke-linecap="round" stroke-linejoin="round"/>
<path d="M681.619 264.25C682.872 264.557 684.176 264.514 685.41 264.127C686.645 263.739 687.771 263.019 688.687 262.032C689.075 261.593 689.292 261.006 689.292 260.395C689.293 259.784 689.077 259.197 688.69 258.757L686.468 256.23" stroke="#1C186C" stroke-width="4.63957" stroke-linecap="round" stroke-linejoin="round"/>
<path d="M667.077 247.991C666.811 246.599 666.865 245.156 667.234 243.793C667.604 242.429 668.277 241.188 669.194 240.181C669.388 239.967 669.619 239.797 669.874 239.681C670.129 239.564 670.402 239.505 670.678 239.505C670.953 239.505 671.226 239.566 671.481 239.682C671.735 239.799 671.966 239.97 672.16 240.185L674.421 242.712" stroke="#1C186C" stroke-width="4.63957" stroke-linecap="round" stroke-linejoin="round"/>
<path d="M684.941 242.21C684.137 240.813 683.713 239.195 683.716 237.543C683.718 236.428 683.921 235.325 684.314 234.297C684.707 233.269 685.282 232.336 686.006 231.553C686.143 231.418 686.32 231.343 686.504 231.343C686.688 231.344 686.865 231.419 687.001 231.554C687.639 232.264 688.148 233.1 688.501 234.017C688.823 234.688 689.047 235.411 689.163 236.158C689.207 236.613 689.206 237.072 689.161 237.528C688.808 239.608 687.839 241.503 686.404 242.918C687.734 241.386 689.481 240.366 691.383 240.013C691.799 239.97 692.217 239.97 692.632 240.014C693.315 240.161 693.973 240.421 694.583 240.787C695.423 241.224 696.177 241.836 696.806 242.587C696.929 242.736 696.998 242.931 696.997 243.133C696.997 243.334 696.929 243.529 696.805 243.678C695.343 245.242 693.38 246.116 691.338 246.112C689.84 246.1 688.377 245.615 687.124 244.716" stroke="#1C186C" stroke-width="4.63957" stroke-linecap="round" stroke-linejoin="round"/>
<path d="M662.527 268.959C662.758 269.25 663.02 269.509 663.307 269.731C664.109 270.292 665.005 270.673 665.943 270.851C666.882 271.028 667.843 270.999 668.77 270.764C670.962 270.403 673.078 269.615 675.018 268.438C678.665 266.511 681.73 263.476 683.849 259.694C685.728 255.891 686.794 251.67 686.965 247.349C686.965 247.049 687.299 244.802 687.085 244.652L684.921 242.21C684.785 241.975 682.755 242.208 682.482 242.315C678.522 242.424 674.639 243.541 671.139 245.577C667.667 247.82 664.869 251.128 663.088 255.092C661.367 259.007 659.408 265.232 662.527 268.959Z" stroke="#1C186C" stroke-width="4.63957" stroke-linecap="round" stroke-linejoin="round"/>
<path d="M676.114 266.491C675.326 263.57 673.902 260.902 671.966 258.718C670.021 256.539 667.616 254.919 664.964 254.002" stroke="#1C186C" stroke-width="4.63957" stroke-linecap="round" stroke-linejoin="round"/>
<path d="M667.682 266.418C667.863 266.626 668.081 266.791 668.323 266.903C668.564 267.016 668.824 267.074 669.086 267.075C669.348 267.075 669.608 267.017 669.85 266.905C670.091 266.793 670.31 266.628 670.492 266.421C670.758 266.119 670.937 265.738 671.007 265.325C671.077 264.912 671.035 264.486 670.885 264.099C670.736 263.713 670.486 263.383 670.167 263.151C669.848 262.919 669.474 262.795 669.091 262.794C668.708 262.794 668.333 262.917 668.013 263.149C667.694 263.38 667.443 263.709 667.293 264.096C667.143 264.482 667.1 264.908 667.169 265.321C667.238 265.734 667.416 266.116 667.682 266.418V266.418Z" fill="#201D67"/>
<path d="M483.989 253.186L475.994 228.973L467.947 253.169" stroke="#1C186C" stroke-width="4.63957" stroke-linecap="round" stroke-linejoin="round"/>
<path d="M463.926 254.256C464.258 254.257 464.551 254.236 464.824 254.193C466.971 253.81 467.266 252.056 469.959 252.059C472.984 252.062 472.982 254.266 475.968 254.269C478.993 254.273 478.995 252.068 481.981 252.072C484.674 252.074 484.946 253.808 487.112 254.217C487.365 254.26 487.678 254.282 488.009 254.282" stroke="#1C186C" stroke-width="4.63957" stroke-linecap="round" stroke-linejoin="round"/>
<path d="M465.932 257.554C465.933 256.398 466.091 255.243 466.424 254.194C468.278 253.811 468.514 252.056 470.817 252.059C473.413 252.062 473.41 254.266 475.967 254.269C478.563 254.271 478.565 252.067 481.122 252.07C483.425 252.072 483.676 253.806 485.51 254.215C485.822 255.264 485.996 256.42 485.995 257.575C485.988 263.653 481.494 268.571 475.952 268.565C470.409 268.559 465.926 263.632 465.932 257.554Z" stroke="#1C186C" stroke-width="4.63957" stroke-linecap="round" stroke-linejoin="round"/>
<path d="M465.939 250.962L486.002 250.983" stroke="#1C186C" stroke-width="4.63957" stroke-linecap="round" stroke-linejoin="round"/>
<path d="M277.492 249.842L291.934 249.857L291.937 247.589L277.495 247.573L277.492 249.842Z" stroke="#1C186C" stroke-width="4.63957" stroke-linecap="round" stroke-linejoin="round"/>
<path d="M268.729 267.937C267.402 267.936 266.389 266.565 266.702 265.153C268.761 256.359 276.047 249.861 284.713 249.87C293.378 249.88 300.65 256.393 302.69 265.192C303.02 266.604 302.004 267.973 300.657 267.972L268.729 267.937V267.937Z" stroke="#1C186C" stroke-width="4.63957" stroke-linecap="round" stroke-linejoin="round"/>
<path d="M292.481 267.963C290.207 267.961 288.361 269.981 288.358 272.475C288.356 274.969 290.197 276.992 292.471 276.995C294.746 276.997 296.592 274.978 296.594 272.484C296.597 269.99 294.755 267.966 292.481 267.963Z" stroke="#1C186C" stroke-width="4.63957" stroke-linecap="round" stroke-linejoin="round"/>
<path d="M276.907 268.288C274.633 268.285 272.787 270.305 272.784 272.799C272.781 275.293 274.623 277.317 276.897 277.319C279.172 277.322 281.017 275.302 281.02 272.808C281.023 270.314 279.181 268.29 276.907 268.288Z" stroke="#1C186C" stroke-width="4.63957" stroke-linecap="round" stroke-linejoin="round"/>
<path d="M284.049 268.274C282.335 268.272 280.944 269.794 280.942 271.674C280.94 273.553 282.328 275.078 284.041 275.08C285.755 275.082 287.146 273.56 287.148 271.68C287.15 269.801 285.763 268.276 284.049 268.274Z" stroke="#1C186C" stroke-width="4.63957" stroke-linecap="round" stroke-linejoin="round"/>
<path d="M294.715 276.697L301.187 283.809" stroke="#1C186C" stroke-width="4.63957" stroke-linecap="round" stroke-linejoin="round"/>
<path d="M300.157 261.228L269.244 261.195" stroke="#1C186C" stroke-width="4.63957" stroke-linecap="round" stroke-linejoin="round"/>
<path d="M360.712 355.653L395.841 355.691C395.845 352.138 393.233 349.267 389.993 349.264L366.574 349.239C363.334 349.235 360.716 352.1 360.712 355.653Z" stroke="#1C186C" stroke-width="4.63957" stroke-linecap="round" stroke-linejoin="round"/>
<path d="M378.256 374.933C386.882 374.942 393.877 367.288 393.888 357.829L393.89 355.689L362.664 355.655L362.662 357.795C362.651 367.255 369.63 374.924 378.256 374.933Z" stroke="#1C186C" stroke-width="4.63957" stroke-linecap="round" stroke-linejoin="round"/>
<path d="M378.257 373.328C376.371 373.326 374.84 375.001 374.838 377.07C374.836 379.138 376.363 380.817 378.249 380.819C380.135 380.821 381.666 379.145 381.669 377.077C381.671 375.008 380.144 373.33 378.257 373.328Z" fill="#201D67"/>
<path d="M500.773 385.663C495.367 385.294 489.964 382.698 485.695 377.943C481.465 373.23 479.149 367.235 478.804 361.242" stroke="#1C186C" stroke-width="4.63957" stroke-linecap="round" stroke-linejoin="round"/>
<path d="M476.583 359.849L478.984 359.209L503.347 352.708C506.627 351.834 509.492 355.047 508.668 358.685L506.943 366.387L506.825 366.88L505.315 373.577L505.178 374.219L502.629 385.452L502.001 388.19C501.413 390.822 499.089 392.51 496.708 392.08C490.854 391.025 485.354 388.065 480.968 383.181C476.602 378.34 473.974 372.237 473.024 365.752C472.637 363.098 474.201 360.488 476.583 359.849Z" stroke="#1C186C" stroke-width="4.63957" stroke-linecap="round" stroke-linejoin="round"/>
<path d="M491.29 366.714C489.565 366.712 488.165 368.262 488.163 370.177C488.161 372.092 489.558 373.646 491.282 373.648C493.007 373.649 494.406 372.099 494.409 370.184C494.411 368.269 493.014 366.715 491.29 366.714Z" stroke="#1C186C" stroke-width="4.63957" stroke-linecap="round" stroke-linejoin="round"/>
<path d="M502.843 368.03C503.917 366.833 505.46 366.449 506.825 366.922L504.864 375.651C504.123 375.458 503.421 375.072 502.836 374.429C501.237 372.651 501.241 369.783 502.843 368.03Z" stroke="#1C186C" stroke-width="4.63957" stroke-linecap="round" stroke-linejoin="round"/>
<path d="M500.396 355.829C500.688 357.071 500.394 358.44 499.534 359.402C498.225 360.856 496.117 360.854 494.811 359.397C494.382 358.926 494.09 358.348 493.954 357.727" stroke="#1C186C" stroke-width="4.63957" stroke-linecap="round" stroke-linejoin="round"/>
<path d="M579.002 353.941L599.01 332.048C601.14 329.717 601.144 325.951 599.019 323.616C596.894 321.281 593.46 321.277 591.33 323.607L571.322 345.501C569.192 347.831 569.188 351.598 571.313 353.933C573.437 356.268 576.872 356.272 579.002 353.941Z" stroke="#1C186C" stroke-width="4.63957" stroke-linecap="round" stroke-linejoin="round"/>
<path d="M594.818 329.133C592.512 331.655 591.693 330.756 589.368 333.279C587.063 335.801 587.881 336.701 585.576 339.246C583.27 341.768 582.432 340.869 580.126 343.392C577.821 345.914 578.639 346.836 576.334 349.359" stroke="#1C186C" stroke-width="4.63957" stroke-linecap="round" stroke-linejoin="round"/>
<path d="M585.909 356.474L601.306 339.626C603.865 336.825 603.87 332.309 601.316 329.503L576.697 356.442C579.231 359.27 583.369 359.275 585.909 356.474Z" stroke="#1C186C" stroke-width="4.63957" stroke-linecap="round" stroke-linejoin="round"/>
<path d="M584.424 321.075L569.027 337.922C566.467 340.723 566.462 345.239 569.016 348.045L593.635 321.106C591.101 318.278 586.964 318.274 584.424 321.075Z" stroke="#1C186C" stroke-width="4.63957" stroke-linecap="round" stroke-linejoin="round"/>
<path d="M682.678 402.611L702.194 402.632C705.668 402.636 708.475 405.721 708.471 409.53L708.467 413.64L676.382 413.605L676.387 409.496C676.391 405.686 679.204 402.608 682.678 402.611Z" stroke="#1C186C" stroke-width="4.63957" stroke-linecap="round" stroke-linejoin="round"/>
<path d="M677.37 420.198L707.464 420.231C709.123 420.232 710.471 418.757 710.473 416.938C710.475 415.119 709.13 413.641 707.471 413.639L677.377 413.607C675.719 413.605 674.37 415.08 674.368 416.899C674.366 418.718 675.711 420.197 677.37 420.198Z" stroke="#1C186C" stroke-width="4.63957" stroke-linecap="round" stroke-linejoin="round"/>
<path d="M691.364 437.805L693.432 437.807C701.727 437.816 708.448 430.461 708.458 421.366L708.459 420.232L676.375 420.197L676.374 421.331C676.364 430.427 683.069 437.796 691.364 437.805Z" stroke="#1C186C" stroke-width="4.63957" stroke-linecap="round" stroke-linejoin="round"/>
<path d="M708.682 413.105C707.921 412.205 707.376 410.985 705.952 410.983C704.527 410.982 703.979 412.201 703.217 413.099" stroke="#1C186C" stroke-width="4.63957" stroke-linecap="round" stroke-linejoin="round"/>
<path d="M690.357 413.085C689.597 412.185 689.052 410.965 687.627 410.963C686.183 410.962 685.635 412.181 684.873 413.079" stroke="#1C186C" stroke-width="4.63957" stroke-linecap="round" stroke-linejoin="round"/>
<path d="M678.435 410.975C679.86 410.976 680.405 412.197 681.165 413.097" stroke="#1C186C" stroke-width="4.63957" stroke-linecap="round" stroke-linejoin="round"/>
<path d="M699.51 413.095C698.75 412.195 698.205 410.975 696.78 410.973C695.356 410.972 694.808 412.191 694.046 413.089" stroke="#1C186C" stroke-width="4.63957" stroke-linecap="round" stroke-linejoin="round"/>
<path d="M854.888 118.326C858.776 114.564 864.067 112.28 869.903 112.329C875.699 112.378 880.985 114.716 884.923 118.53" stroke="#1C186C" stroke-width="4.63957" stroke-linecap="round" stroke-linejoin="round"/>
<path d="M883.996 109.69C879.803 106.903 874.984 105.315 869.871 105.266C863.88 105.217 858.315 107.308 853.686 110.942C851.811 112.416 851.281 115.305 852.488 117.532L853.754 119.866L858.994 129.374C858.994 129.374 862.714 136.141 866.22 142.522C867.915 145.606 871.857 145.653 873.539 142.616L886.053 120.072L887.285 117.848C888.498 115.645 887.954 112.712 886.043 111.212C885.4 110.655 884.698 110.162 883.996 109.69Z" stroke="#1C186C" stroke-width="4.63957" stroke-linecap="round" stroke-linejoin="round"/>
<path d="M876.858 122.782C877.327 122.997 877.854 122.997 878.322 122.784C878.576 122.677 878.771 122.528 878.967 122.335C879.318 121.929 879.534 121.394 879.534 120.838C879.535 120.26 879.34 119.746 878.97 119.339C878.6 118.932 878.131 118.717 877.604 118.717C877.077 118.716 876.609 118.93 876.238 119.336C875.866 119.742 875.671 120.277 875.67 120.833C875.669 121.39 875.884 121.925 876.234 122.332C876.41 122.546 876.624 122.696 876.858 122.782Z" fill="#201D67"/>
<path d="M869.172 120.675C869.64 120.89 870.167 120.891 870.635 120.677C870.87 120.57 871.085 120.421 871.28 120.228C871.632 119.822 871.847 119.287 871.847 118.731C871.848 118.153 871.654 117.639 871.283 117.232C870.913 116.825 870.445 116.611 869.918 116.61C869.391 116.609 868.922 116.823 868.551 117.229C868.18 117.635 867.984 118.149 867.983 118.727C867.983 119.283 868.197 119.818 868.548 120.225C868.723 120.418 868.918 120.568 869.172 120.675Z" fill="#201D67"/>
<path d="M860.817 122.337C861.538 123.13 862.826 123.131 863.549 122.34C863.901 121.934 864.116 121.399 864.117 120.843C864.118 120.265 863.923 119.751 863.553 119.344C863.182 118.937 862.714 118.722 862.187 118.722C861.933 118.722 861.68 118.786 861.465 118.892C861.231 118.999 861.016 119.149 860.82 119.341C860.449 119.747 860.253 120.261 860.253 120.839C860.272 121.374 860.486 121.93 860.817 122.337Z" fill="#201D67"/>
<path d="M864.263 130.087C864.36 130.365 864.496 130.579 864.672 130.793C865.393 131.586 866.681 131.587 867.404 130.796C867.58 130.582 867.717 130.369 867.815 130.09C867.912 129.834 867.971 129.556 867.971 129.299C867.972 129.021 867.914 128.742 867.816 128.507C867.719 128.25 867.583 128.014 867.407 127.8C867.037 127.393 866.569 127.179 866.042 127.178C865.788 127.178 865.534 127.242 865.319 127.348C865.085 127.455 864.87 127.605 864.675 127.797C864.304 128.203 864.108 128.717 864.107 129.295C864.107 129.551 864.165 129.83 864.263 130.087Z" fill="#201D67"/>
<path d="M871.973 130.095C872.07 130.352 872.206 130.587 872.382 130.802C873.122 131.594 874.41 131.596 875.114 130.805C875.29 130.591 875.427 130.377 875.524 130.099C875.622 129.842 875.681 129.564 875.681 129.307C875.682 128.729 875.487 128.215 875.117 127.808C874.922 127.616 874.708 127.466 874.474 127.358C874.239 127.251 873.986 127.187 873.732 127.186C873.205 127.186 872.737 127.399 872.365 127.805C872.189 128.019 872.053 128.255 871.955 128.511C871.837 128.768 871.798 129.046 871.798 129.303C871.817 129.56 871.856 129.838 871.973 130.095Z" fill="#201D67"/>
<path d="M871.243 136.238C870.873 135.831 870.405 135.616 869.878 135.615C869.624 135.615 869.37 135.679 869.155 135.786C868.921 135.893 868.706 136.042 868.511 136.235C868.335 136.448 868.198 136.684 868.1 136.94C868.002 137.197 867.944 137.475 867.943 137.732C867.943 138.31 868.157 138.824 868.508 139.231C869.053 139.809 869.892 140.024 870.615 139.683C870.869 139.576 871.064 139.426 871.259 139.234C871.611 138.828 871.826 138.293 871.827 137.736C871.827 137.458 871.769 137.18 871.672 136.944C871.555 136.687 871.419 136.452 871.243 136.238Z" fill="#201D67"/>
<path d="M188.488 372.288C192.376 368.526 197.667 366.242 203.502 366.291C209.298 366.34 214.585 368.678 218.523 372.492" stroke="#1C186C" stroke-width="4.63957" stroke-linecap="round" stroke-linejoin="round"/>
<path d="M217.596 363.653C213.403 360.866 208.584 359.277 203.471 359.229C197.479 359.18 191.915 361.271 187.286 364.905C185.41 366.379 184.88 369.268 186.088 371.495L187.354 373.829L192.594 383.337C192.594 383.337 196.314 390.104 199.82 396.485C201.515 399.569 205.457 399.616 207.138 396.579L219.653 374.035L220.885 371.81C222.097 369.607 221.554 366.675 219.643 365.175C219 364.618 218.298 364.125 217.596 363.653Z" stroke="#1C186C" stroke-width="4.63957" stroke-linecap="round" stroke-linejoin="round"/>
<path d="M210.458 376.743C210.926 376.957 211.453 376.958 211.922 376.744C212.176 376.638 212.371 376.488 212.567 376.296C212.918 375.89 213.134 375.355 213.134 374.798C213.135 374.22 212.94 373.707 212.57 373.3C212.199 372.893 211.731 372.678 211.204 372.677C210.677 372.677 210.209 372.89 209.837 373.297C209.466 373.703 209.271 374.238 209.27 374.794C209.269 375.351 209.483 375.886 209.834 376.293C210.01 376.507 210.224 376.657 210.458 376.743Z" fill="#201D67"/>
<path d="M202.771 374.636C203.239 374.85 203.766 374.851 204.235 374.637C204.469 374.531 204.684 374.381 204.88 374.189C205.231 373.782 205.446 373.247 205.447 372.691C205.448 372.113 205.253 371.599 204.883 371.192C204.512 370.785 204.044 370.571 203.517 370.57C202.99 370.57 202.522 370.783 202.15 371.189C201.779 371.596 201.584 372.109 201.583 372.687C201.582 373.243 201.796 373.779 202.147 374.186C202.323 374.378 202.518 374.528 202.771 374.636Z" fill="#201D67"/>
<path d="M194.415 376.298C195.137 377.09 196.425 377.092 197.148 376.301C197.499 375.894 197.715 375.359 197.715 374.803C197.716 374.225 197.521 373.711 197.151 373.304C196.78 372.897 196.312 372.683 195.785 372.682C195.532 372.682 195.278 372.746 195.063 372.853C194.829 372.959 194.614 373.109 194.419 373.301C194.047 373.708 193.852 374.221 193.851 374.799C193.87 375.334 194.084 375.891 194.415 376.298Z" fill="#201D67"/>
<path d="M197.863 384.047C197.96 384.326 198.096 384.54 198.272 384.754C198.993 385.547 200.281 385.548 201.004 384.757C201.18 384.543 201.317 384.329 201.415 384.051C201.512 383.794 201.571 383.516 201.572 383.259C201.572 382.981 201.514 382.703 201.416 382.467C201.319 382.211 201.183 381.975 201.007 381.761C200.637 381.354 200.169 381.139 199.642 381.139C199.388 381.138 199.134 381.202 198.919 381.309C198.685 381.416 198.47 381.565 198.275 381.758C197.904 382.164 197.708 382.677 197.707 383.255C197.707 383.512 197.765 383.79 197.863 384.047Z" fill="#201D67"/>
<path d="M205.572 384.056C205.669 384.313 205.806 384.548 205.981 384.762C206.722 385.555 208.01 385.556 208.713 384.765C208.889 384.551 209.026 384.338 209.124 384.059C209.222 383.803 209.281 383.525 209.281 383.268C209.282 382.69 209.087 382.176 208.717 381.769C208.522 381.576 208.307 381.426 208.073 381.319C207.839 381.212 207.585 381.147 207.332 381.147C206.805 381.146 206.336 381.36 205.965 381.766C205.789 381.98 205.652 382.215 205.554 382.472C205.437 382.729 205.398 383.007 205.397 383.264C205.417 383.52 205.455 383.799 205.572 384.056Z" fill="#201D67"/>
<path d="M204.843 390.198C204.473 389.791 204.005 389.577 203.478 389.576C203.224 389.576 202.97 389.64 202.755 389.747C202.521 389.853 202.306 390.003 202.111 390.195C201.935 390.409 201.798 390.644 201.7 390.901C201.602 391.158 201.544 391.436 201.543 391.693C201.543 392.271 201.757 392.784 202.108 393.191C202.654 393.77 203.493 393.985 204.215 393.643C204.469 393.536 204.664 393.387 204.86 393.194C205.211 392.788 205.426 392.253 205.427 391.697C205.427 391.419 205.369 391.14 205.272 390.905C205.155 390.648 205.019 390.412 204.843 390.198Z" fill="#201D67"/>
<path d="M252.296 104.839C256.184 101.076 261.475 98.7922 267.31 98.8413C273.107 98.8903 278.393 101.229 282.331 105.042" stroke="#1C186C" stroke-width="4.63957" stroke-linecap="round" stroke-linejoin="round"/>
<path d="M281.404 96.2032C277.211 93.4165 272.392 91.8276 267.279 91.7793C261.287 91.7301 255.723 93.8215 251.094 97.4547C249.218 98.9294 248.688 101.818 249.896 104.045L251.162 106.379L256.402 115.887C256.402 115.887 260.122 122.654 263.628 129.035C265.323 132.119 269.265 132.166 270.947 129.129L283.461 106.585L284.693 104.361C285.905 102.158 285.362 99.2251 283.451 97.7249C282.808 97.1678 282.106 96.6748 281.404 96.2032Z" stroke="#1C186C" stroke-width="4.63957" stroke-linecap="round" stroke-linejoin="round"/>
<path d="M274.266 109.292C274.735 109.507 275.262 109.508 275.73 109.294C275.984 109.187 276.179 109.038 276.375 108.845C276.726 108.439 276.942 107.904 276.942 107.348C276.943 106.77 276.748 106.256 276.378 105.849C276.007 105.442 275.539 105.228 275.012 105.227C274.485 105.226 274.017 105.44 273.646 105.846C273.274 106.252 273.079 106.787 273.078 107.344C273.077 107.9 273.292 108.435 273.642 108.842C273.818 109.057 274.032 109.207 274.266 109.292Z" fill="#201D67"/>
<path d="M266.579 107.186C267.048 107.401 267.574 107.401 268.043 107.188C268.277 107.081 268.492 106.932 268.688 106.739C269.039 106.333 269.255 105.798 269.255 105.242C269.256 104.664 269.061 104.15 268.691 103.743C268.32 103.336 267.852 103.121 267.325 103.121C266.798 103.12 266.33 103.334 265.959 103.74C265.587 104.146 265.392 104.66 265.391 105.238C265.39 105.794 265.604 106.329 265.955 106.736C266.131 106.929 266.326 107.079 266.579 107.186Z" fill="#201D67"/>
<path d="M258.223 108.847C258.945 109.64 260.233 109.641 260.956 108.85C261.307 108.444 261.523 107.909 261.523 107.353C261.524 106.775 261.329 106.261 260.959 105.854C260.589 105.447 260.12 105.233 259.593 105.232C259.34 105.232 259.086 105.296 258.871 105.403C258.637 105.509 258.422 105.659 258.227 105.851C257.855 106.257 257.66 106.771 257.659 107.349C257.678 107.884 257.892 108.44 258.223 108.847Z" fill="#201D67"/>
<path d="M261.67 116.598C261.767 116.876 261.903 117.09 262.079 117.305C262.8 118.097 264.088 118.099 264.811 117.308C264.987 117.094 265.124 116.88 265.222 116.602C265.32 116.345 265.378 116.067 265.379 115.81C265.379 115.532 265.321 115.254 265.223 115.018C265.126 114.761 264.99 114.526 264.814 114.311C264.444 113.904 263.976 113.69 263.449 113.689C263.195 113.689 262.941 113.753 262.727 113.86C262.492 113.966 262.277 114.116 262.082 114.308C261.711 114.715 261.515 115.228 261.514 115.806C261.514 116.063 261.572 116.341 261.67 116.598Z" fill="#201D67"/>
<path d="M269.378 116.606C269.476 116.863 269.612 117.099 269.787 117.313C270.528 118.106 271.816 118.107 272.52 117.316C272.695 117.102 272.832 116.888 272.93 116.61C273.028 116.353 273.087 116.075 273.087 115.818C273.088 115.241 272.893 114.727 272.523 114.32C272.328 114.127 272.113 113.977 271.879 113.87C271.645 113.762 271.392 113.698 271.138 113.698C270.611 113.697 270.142 113.91 269.771 114.317C269.595 114.531 269.458 114.766 269.36 115.023C269.243 115.279 269.204 115.557 269.203 115.814C269.223 116.071 269.261 116.349 269.378 116.606Z" fill="#201D67"/>
<path d="M268.651 122.748C268.281 122.341 267.813 122.126 267.286 122.126C267.032 122.125 266.778 122.189 266.564 122.296C266.329 122.403 266.114 122.552 265.919 122.745C265.743 122.959 265.606 123.194 265.508 123.451C265.411 123.707 265.352 123.985 265.351 124.242C265.351 124.82 265.565 125.334 265.916 125.741C266.462 126.319 267.301 126.534 268.023 126.193C268.277 126.086 268.472 125.936 268.668 125.744C269.019 125.338 269.235 124.803 269.235 124.246C269.235 123.968 269.177 123.69 269.08 123.454C268.963 123.197 268.827 122.962 268.651 122.748Z" fill="#201D67"/>
<path d="M374.041 212.449C376.408 206.972 381.486 203.19 387.38 203.196C395.519 203.205 402.127 210.467 402.117 219.391C402.109 227.331 396.871 233.939 389.961 235.301C389.732 230.486 386.516 226.523 382.302 225.641C382.38 225.063 382.439 224.464 382.44 223.865C382.446 218.257 378.841 213.567 374.041 212.449Z" stroke="#1C186C" stroke-width="4.63957" stroke-linecap="round" stroke-linejoin="round"/>
<path d="M393.463 228.2C394.653 228.201 395.63 227.132 395.631 225.826C395.633 224.521 394.658 223.45 393.468 223.448C392.277 223.447 391.3 224.516 391.299 225.822C391.297 227.149 392.272 228.198 393.463 228.2Z" fill="#201D67"/>
<path d="M398.23 240.597C399.421 240.598 400.398 239.529 400.399 238.224C400.4 236.918 399.426 235.847 398.235 235.846C397.045 235.844 396.068 236.913 396.066 238.219C396.085 239.546 397.04 240.596 398.23 240.597Z" fill="#201D67"/>
<path d="M387.166 220.894C388.357 220.895 389.334 219.826 389.335 218.521C389.336 217.215 388.362 216.144 387.171 216.143C385.981 216.142 385.004 217.211 385.002 218.516C385.001 219.843 385.976 220.893 387.166 220.894Z" fill="#201D67"/>
<path d="M385.303 211.371C385.303 211.371 385.713 211.114 386.241 210.772C386.748 210.452 387.178 210.174 387.178 210.174C387.178 210.174 386.768 210.43 386.241 210.772C385.733 211.114 385.303 211.371 385.303 211.371Z" stroke="#1C186C" stroke-width="4.63957" stroke-linecap="round" stroke-linejoin="round"/>
<path d="M395.229 217.522C395.229 217.522 394.78 217.307 394.234 217.05C393.688 216.793 393.239 216.578 393.239 216.578C393.239 216.578 393.688 216.793 394.234 217.05C394.78 217.307 395.229 217.522 395.229 217.522Z" stroke="#1C186C" stroke-width="4.63957" stroke-linecap="round" stroke-linejoin="round"/>
<path d="M404.895 230.994C404.895 230.994 404.543 231.357 404.113 231.806C403.683 232.255 403.332 232.618 403.332 232.618C403.332 232.618 403.683 232.255 404.113 231.806C404.543 231.357 404.895 230.994 404.895 230.994Z" stroke="#1C186C" stroke-width="4.63957" stroke-linecap="round" stroke-linejoin="round"/>
<path d="M406.879 219.075C408.906 221.602 410.132 224.899 410.128 228.516C410.119 236.413 404.277 242.806 397.076 242.798C391.26 242.792 386.327 238.614 384.654 232.833" stroke="#1C186C" stroke-width="4.63957" stroke-linecap="round" stroke-linejoin="round"/>
<path d="M775.488 85.5928C776.742 85.8995 778.045 85.8571 779.279 85.4697C780.514 85.0822 781.64 84.362 782.556 83.3746C782.944 82.936 783.161 82.3491 783.162 81.7381C783.162 81.127 782.946 80.5397 782.559 80.1002L780.337 77.5724" stroke="#1C186C" stroke-width="4.63957" stroke-linecap="round" stroke-linejoin="round"/>
<path d="M760.947 69.334C760.68 67.9422 760.734 66.4993 761.104 65.1359C761.473 63.7724 762.147 62.5313 763.063 61.5248C763.258 61.3101 763.489 61.1399 763.744 61.0238C763.998 60.9077 764.271 60.848 764.547 60.8483C764.823 60.8486 765.096 60.9088 765.35 61.0255C765.605 61.1421 765.836 61.3129 766.03 61.5279L768.291 64.0558" stroke="#1C186C" stroke-width="4.63957" stroke-linecap="round" stroke-linejoin="round"/>
<path d="M778.81 63.5533C778.007 62.1565 777.582 60.538 777.586 58.8864C777.587 57.7717 777.791 56.6683 778.184 55.6401C778.577 54.612 779.152 53.6794 779.875 52.8965C780.012 52.7613 780.189 52.6865 780.373 52.6867C780.557 52.6869 780.735 52.762 780.871 52.8975C781.508 53.607 782.017 54.4427 782.371 55.3603C782.693 56.0312 782.916 56.7538 783.032 57.5012C783.076 57.9565 783.076 58.4157 783.031 58.8709C782.678 60.9515 781.708 62.8462 780.273 64.2611C781.604 62.7288 783.351 61.7096 785.253 61.3558C785.668 61.313 786.086 61.3134 786.502 61.3572C787.184 61.504 787.842 61.7645 788.453 62.1297C789.292 62.5677 790.047 63.1788 790.676 63.9298C790.799 64.0795 790.867 64.2741 790.867 64.4758C790.867 64.6775 790.798 64.8719 790.674 65.0213C789.212 66.5856 787.25 67.4594 785.207 67.4552C783.709 67.443 782.247 66.9585 780.993 66.0596" stroke="#1C186C" stroke-width="4.63957" stroke-linecap="round" stroke-linejoin="round"/>
<path d="M756.396 90.3019C756.627 90.5923 756.889 90.8512 757.176 91.0732C757.978 91.6349 758.875 92.0156 759.813 92.193C760.751 92.3704 761.712 92.3409 762.639 92.1063C764.832 91.7455 766.947 90.9577 768.887 89.7803C772.534 87.8539 775.599 84.8188 777.718 81.0366C779.597 77.2338 780.663 73.0121 780.834 68.6912C780.834 68.3916 781.169 66.1448 780.954 65.9948L778.79 63.5527C778.654 63.3171 776.624 63.5504 776.351 63.6571C772.391 63.7663 768.508 64.883 765.008 66.9193C761.536 69.1627 758.738 72.47 756.957 76.4343C755.236 80.349 753.277 86.5747 756.396 90.3019Z" stroke="#1C186C" stroke-width="4.63957" stroke-linecap="round" stroke-linejoin="round"/>
<path d="M769.982 87.8338C769.194 84.9125 767.77 82.2449 765.834 80.0606C763.889 77.8816 761.484 76.2619 758.833 75.3448" stroke="#1C186C" stroke-width="4.63957" stroke-linecap="round" stroke-linejoin="round"/>
<path d="M761.551 87.7604C761.733 87.9677 761.951 88.1327 762.192 88.2455C762.434 88.3583 762.693 88.4166 762.956 88.4168C763.218 88.4171 763.478 88.3594 763.719 88.2471C763.961 88.1349 764.179 87.9703 764.361 87.7634C764.628 87.4614 764.807 87.0801 764.877 86.6673C764.947 86.2544 764.904 85.8281 764.755 85.4415C764.606 85.0548 764.356 84.725 764.037 84.4929C763.717 84.2609 763.343 84.137 762.96 84.1366C762.577 84.1361 762.203 84.2593 761.883 84.4906C761.563 84.722 761.313 85.0513 761.163 85.4376C761.012 85.8239 760.969 86.2501 761.038 86.6631C761.107 87.0762 761.286 87.4578 761.551 87.7604V87.7604Z" fill="#201D67"/>
<path d="M115.642 308.583C116.895 308.889 118.198 308.847 119.433 308.46C120.667 308.072 121.793 307.352 122.709 306.365C123.097 305.926 123.314 305.339 123.315 304.728C123.316 304.117 123.1 303.53 122.713 303.09L120.49 300.562" stroke="#1C186C" stroke-width="4.63957" stroke-linecap="round" stroke-linejoin="round"/>
<path d="M101.1 292.324C100.834 290.932 100.888 289.489 101.257 288.126C101.627 286.762 102.3 285.521 103.217 284.515C103.411 284.3 103.642 284.13 103.897 284.014C104.152 283.898 104.425 283.838 104.7 283.838C104.976 283.839 105.249 283.899 105.504 284.015C105.758 284.132 105.989 284.303 106.183 284.518L108.444 287.046" stroke="#1C186C" stroke-width="4.63957" stroke-linecap="round" stroke-linejoin="round"/>
<path d="M118.964 286.543C118.16 285.146 117.736 283.528 117.739 281.876C117.741 280.761 117.944 279.658 118.337 278.63C118.73 277.602 119.305 276.669 120.029 275.886C120.166 275.751 120.343 275.676 120.527 275.676C120.711 275.677 120.888 275.752 121.024 275.887C121.662 276.597 122.171 277.432 122.524 278.35C122.846 279.021 123.07 279.743 123.186 280.491C123.23 280.946 123.229 281.405 123.184 281.86C122.831 283.941 121.862 285.836 120.427 287.251C121.757 285.718 123.504 284.699 125.406 284.345C125.822 284.303 126.24 284.303 126.655 284.347C127.338 284.494 127.996 284.754 128.606 285.119C129.446 285.557 130.2 286.168 130.829 286.919C130.952 287.069 131.021 287.264 131.02 287.465C131.02 287.667 130.952 287.862 130.828 288.011C129.366 289.575 127.403 290.449 125.361 290.445C123.863 290.433 122.4 289.948 121.147 289.049" stroke="#1C186C" stroke-width="4.63957" stroke-linecap="round" stroke-linejoin="round"/>
<path d="M96.5494 313.292C96.7802 313.583 97.0421 313.842 97.3292 314.064C98.1315 314.625 99.0279 315.006 99.966 315.183C100.904 315.361 101.865 315.331 102.793 315.097C104.985 314.736 107.101 313.948 109.04 312.771C112.687 310.844 115.752 307.809 117.871 304.027C119.75 300.224 120.816 296.003 120.987 291.682C120.988 291.382 121.322 289.135 121.107 288.985L118.944 286.543C118.807 286.308 116.777 286.541 116.504 286.647C112.544 286.757 108.661 287.873 105.162 289.91C101.69 292.153 98.8913 295.46 97.1107 299.425C95.3891 303.339 93.4308 309.565 96.5494 313.292Z" stroke="#1C186C" stroke-width="4.63957" stroke-linecap="round" stroke-linejoin="round"/>
<path d="M110.135 310.824C109.347 307.902 107.923 305.235 105.987 303.051C104.042 300.872 101.637 299.252 98.9854 298.335" stroke="#1C186C" stroke-width="4.63957" stroke-linecap="round" stroke-linejoin="round"/>
<path d="M101.704 310.751C101.886 310.958 102.104 311.123 102.346 311.236C102.587 311.349 102.847 311.407 103.109 311.408C103.371 311.408 103.631 311.35 103.873 311.238C104.114 311.126 104.333 310.961 104.515 310.754C104.781 310.452 104.96 310.071 105.03 309.658C105.1 309.245 105.058 308.819 104.908 308.432C104.759 308.046 104.509 307.716 104.19 307.484C103.871 307.252 103.496 307.128 103.114 307.127C102.731 307.127 102.356 307.25 102.036 307.481C101.717 307.713 101.466 308.042 101.316 308.428C101.166 308.815 101.123 309.241 101.192 309.654C101.261 310.067 101.439 310.448 101.704 310.751V310.751Z" fill="#201D67"/>
<path d="M177.248 64.9596C178.501 65.2662 179.805 65.2239 181.039 64.8365C182.273 64.449 183.4 63.7287 184.315 62.7414C184.703 62.3027 184.921 61.7159 184.921 61.1048C184.922 60.4938 184.706 59.9065 184.319 59.467L182.097 56.9392" stroke="#1C186C" stroke-width="4.63957" stroke-linecap="round" stroke-linejoin="round"/>
<path d="M162.706 48.7004C162.44 47.3086 162.494 45.8657 162.863 44.5023C163.233 43.1388 163.906 41.8977 164.822 40.8912C165.017 40.6765 165.248 40.5063 165.503 40.3902C165.757 40.2741 166.031 40.2144 166.306 40.2147C166.582 40.215 166.855 40.2752 167.11 40.3919C167.364 40.5085 167.595 40.6793 167.789 40.8943L170.05 43.4221" stroke="#1C186C" stroke-width="4.63957" stroke-linecap="round" stroke-linejoin="round"/>
<path d="M180.57 42.9197C179.766 41.5229 179.342 39.9044 179.345 38.2528C179.347 37.138 179.55 36.0347 179.943 35.0065C180.336 33.9783 180.911 33.0458 181.635 32.2629C181.771 32.1277 181.949 32.0529 182.133 32.0531C182.317 32.0533 182.494 32.1284 182.63 32.2639C183.268 32.9734 183.777 33.8091 184.13 34.7267C184.452 35.3976 184.676 36.1202 184.792 36.8676C184.836 37.3229 184.835 37.7821 184.79 38.2373C184.437 40.3178 183.468 42.2126 182.033 43.6275C183.363 42.0952 185.11 41.076 187.012 40.7222C187.428 40.6794 187.846 40.6798 188.261 40.7236C188.944 40.8704 189.602 41.1309 190.212 41.4961C191.052 41.9341 191.806 42.5452 192.435 43.2962C192.558 43.4459 192.626 43.6405 192.626 43.8422C192.626 44.0439 192.557 44.2383 192.434 44.3877C190.972 45.952 189.009 46.8258 186.967 46.8216C185.469 46.8094 184.006 46.3249 182.753 45.426" stroke="#1C186C" stroke-width="4.63957" stroke-linecap="round" stroke-linejoin="round"/>
<path d="M158.156 69.6691C158.387 69.9595 158.649 70.2184 158.936 70.4404C159.738 71.0021 160.634 71.3828 161.572 71.5602C162.51 71.7376 163.471 71.7081 164.399 71.4735C166.591 71.1126 168.707 70.3249 170.647 69.1475C174.293 67.221 177.359 64.186 179.477 60.4037C181.357 56.601 182.422 52.3793 182.594 48.0584C182.594 47.7588 182.928 45.512 182.714 45.3619L180.55 42.9198C180.414 42.6843 178.384 42.9175 178.111 43.0242C174.15 43.1334 170.268 44.2502 166.768 46.2865C163.296 48.5299 160.498 51.8372 158.717 55.8015C156.996 59.7161 155.037 65.9419 158.156 69.6691Z" stroke="#1C186C" stroke-width="4.63957" stroke-linecap="round" stroke-linejoin="round"/>
<path d="M171.741 67.201C170.953 64.2796 169.529 61.6121 167.593 59.4278C165.648 57.2488 163.243 55.6291 160.591 54.7119" stroke="#1C186C" stroke-width="4.63957" stroke-linecap="round" stroke-linejoin="round"/>
<path d="M163.31 67.1279C163.492 67.3352 163.71 67.5002 163.952 67.613C164.193 67.7258 164.453 67.7841 164.715 67.7844C164.977 67.7847 165.237 67.7269 165.478 67.6147C165.72 67.5024 165.938 67.3379 166.121 67.1309C166.387 66.8289 166.566 66.4477 166.636 66.0348C166.706 65.6219 166.664 65.1956 166.514 64.809C166.365 64.4224 166.115 64.0925 165.796 63.8605C165.477 63.6284 165.102 63.5045 164.719 63.5041C164.337 63.5037 163.962 63.6268 163.642 63.8581C163.323 64.0895 163.072 64.4188 162.922 64.8051C162.772 65.1914 162.729 65.6176 162.798 66.0307C162.867 66.4437 163.045 66.8253 163.31 67.1279V67.1279Z" fill="#201D67"/>
<path d="M577.853 81.677L569.857 57.4633L561.81 81.6597" stroke="#1C186C" stroke-width="4.63957" stroke-linecap="round" stroke-linejoin="round"/>
<path d="M557.787 82.7474C558.119 82.7478 558.412 82.7267 558.685 82.6842C560.832 82.3012 561.127 80.5466 563.82 80.5495C566.845 80.5528 566.843 82.7571 569.829 82.7603C572.854 82.7636 572.856 80.5592 575.842 80.5625C578.535 80.5653 578.807 82.2992 580.972 82.7081C581.226 82.7512 581.538 82.7729 581.87 82.7733" stroke="#1C186C" stroke-width="4.63957" stroke-linecap="round" stroke-linejoin="round"/>
<path d="M559.793 86.0455C559.794 84.8898 559.952 83.7343 560.284 82.6859C562.139 82.3027 562.375 80.548 564.678 80.5505C567.274 80.5533 567.271 82.7577 569.828 82.7604C572.423 82.7632 572.426 80.5588 574.982 80.5616C577.285 80.5641 577.537 82.2979 579.371 82.7065C579.682 83.7555 579.857 84.9113 579.856 86.067C579.849 92.145 575.355 97.0626 569.812 97.0566C564.27 97.0506 559.786 92.1235 559.793 86.0455Z" stroke="#1C186C" stroke-width="4.63957" stroke-linecap="round" stroke-linejoin="round"/>
<path d="M559.801 79.4544L579.863 79.476" stroke="#1C186C" stroke-width="4.63957" stroke-linecap="round" stroke-linejoin="round"/>
<path d="M53.5249 30.1458L45.5298 5.93211L37.4826 30.1286" stroke="#1C186C" stroke-width="4.63957" stroke-linecap="round" stroke-linejoin="round"/>
<path d="M33.461 31.216C33.7928 31.2164 34.0855 31.1953 34.3588 31.1528C36.506 30.7699 36.8006 29.0153 39.4939 29.0182C42.5189 29.0214 42.5165 31.2258 45.5025 31.229C48.5275 31.2322 48.5298 29.0279 51.5158 29.0311C54.2091 29.034 54.4804 30.7678 56.6463 31.1767C56.8999 31.2198 57.2122 31.2416 57.5439 31.2419" stroke="#1C186C" stroke-width="4.63957" stroke-linecap="round" stroke-linejoin="round"/>
<path d="M35.4663 34.5134C35.4675 33.3577 35.6249 32.2022 35.9578 31.1538C37.8123 30.7706 38.0483 29.0159 40.3512 29.0184C42.9469 29.0212 42.9445 31.2256 45.5011 31.2283C48.0968 31.2311 48.0992 29.0267 50.6558 29.0295C52.9587 29.032 53.2105 30.7658 55.0446 31.1744C55.3558 32.2234 55.5302 33.3792 55.5289 34.5349C55.5224 40.6129 51.0284 45.5305 45.4858 45.5245C39.9432 45.5185 35.4598 40.5914 35.4663 34.5134Z" stroke="#1C186C" stroke-width="4.63957" stroke-linecap="round" stroke-linejoin="round"/>
<path d="M35.473 27.9221L55.5356 27.9437" stroke="#1C186C" stroke-width="4.63957" stroke-linecap="round" stroke-linejoin="round"/>
<path d="M371.366 68.8002L385.808 68.8158L385.811 66.5472L371.369 66.5317L371.366 68.8002Z" stroke="#1C186C" stroke-width="4.63957" stroke-linecap="round" stroke-linejoin="round"/>
<path d="M362.603 86.8957C361.275 86.8943 360.262 85.5235 360.576 84.1114C362.634 75.3176 369.921 68.8193 378.586 68.8286C387.251 68.838 394.524 75.3518 396.564 84.15C396.894 85.5629 395.878 86.9315 394.531 86.9301L362.603 86.8957V86.8957Z" stroke="#1C186C" stroke-width="4.63957" stroke-linecap="round" stroke-linejoin="round"/>
<path d="M386.352 86.9223C384.077 86.9198 382.232 88.9396 382.229 91.4336C382.226 93.9275 384.068 95.9513 386.342 95.9537C388.616 95.9561 390.462 93.9364 390.465 91.4424C390.467 88.9485 388.626 86.9247 386.352 86.9223Z" stroke="#1C186C" stroke-width="4.63957" stroke-linecap="round" stroke-linejoin="round"/>
<path d="M370.777 87.2474C368.502 87.245 366.656 89.2648 366.654 91.7587C366.651 94.2527 368.493 96.2764 370.767 96.2789C373.041 96.2813 374.887 94.2615 374.89 91.7676C374.892 89.2736 373.051 87.2499 370.777 87.2474Z" stroke="#1C186C" stroke-width="4.63957" stroke-linecap="round" stroke-linejoin="round"/>
<path d="M377.921 87.2341C376.207 87.2322 374.816 88.7542 374.814 90.6336C374.812 92.5129 376.2 94.0379 377.914 94.0398C379.627 94.0416 381.018 92.5196 381.02 90.6403C381.022 88.7609 379.635 87.2359 377.921 87.2341Z" stroke="#1C186C" stroke-width="4.63957" stroke-linecap="round" stroke-linejoin="round"/>
<path d="M388.588 95.6561L395.06 102.768" stroke="#1C186C" stroke-width="4.63957" stroke-linecap="round" stroke-linejoin="round"/>
<path d="M394.03 80.1883L363.117 80.155" stroke="#1C186C" stroke-width="4.63957" stroke-linecap="round" stroke-linejoin="round"/>
<path d="M454.616 146.018L489.745 146.056C489.749 142.503 487.137 139.632 483.897 139.629L460.478 139.604C457.238 139.6 454.62 142.465 454.616 146.018Z" stroke="#1C186C" stroke-width="4.63957" stroke-linecap="round" stroke-linejoin="round"/>
<path d="M472.16 165.298C480.786 165.307 487.781 157.653 487.791 148.194L487.794 146.054L456.568 146.02L456.565 148.16C456.555 157.62 463.534 165.289 472.16 165.298Z" stroke="#1C186C" stroke-width="4.63957" stroke-linecap="round" stroke-linejoin="round"/>
<path d="M472.162 163.694C470.275 163.692 468.744 165.367 468.742 167.436C468.74 169.504 470.267 171.183 472.154 171.185C474.04 171.187 475.571 169.512 475.573 167.443C475.575 165.375 474.048 163.696 472.162 163.694Z" fill="#201D67"/>
<path d="M598.968 223.69C593.563 223.321 588.159 220.725 583.891 215.97C579.661 211.257 577.345 205.262 577 199.269" stroke="#1C186C" stroke-width="4.63957" stroke-linecap="round" stroke-linejoin="round"/>
<path d="M574.779 197.876L577.18 197.236L601.543 190.735C604.823 189.861 607.688 193.075 606.865 196.712L605.139 204.415L605.021 204.907L603.511 211.604L603.374 212.246L600.825 223.479L600.198 226.217C599.609 228.849 597.285 230.537 594.904 230.107C589.051 229.052 583.55 226.093 579.164 221.208C574.798 216.367 572.17 210.265 571.221 203.779C570.833 201.125 572.397 198.515 574.779 197.876Z" stroke="#1C186C" stroke-width="4.63957" stroke-linecap="round" stroke-linejoin="round"/>
<path d="M589.485 204.739C587.761 204.737 586.361 206.288 586.359 208.202C586.357 210.117 587.753 211.671 589.478 211.673C591.203 211.675 592.602 210.124 592.604 208.209C592.606 206.294 591.21 204.741 589.485 204.739Z" stroke="#1C186C" stroke-width="4.63957" stroke-linecap="round" stroke-linejoin="round"/>
<path d="M601.038 206.058C602.112 204.861 603.655 204.477 605.02 204.95L603.059 213.679C602.318 213.486 601.616 213.1 601.031 212.457C599.432 210.679 599.435 207.811 601.038 206.058Z" stroke="#1C186C" stroke-width="4.63957" stroke-linecap="round" stroke-linejoin="round"/>
<path d="M598.592 193.855C598.883 195.097 598.589 196.466 597.729 197.428C596.42 198.882 594.312 198.88 593.006 197.423C592.577 196.952 592.285 196.374 592.149 195.753" stroke="#1C186C" stroke-width="4.63957" stroke-linecap="round" stroke-linejoin="round"/>
<path d="M35.4604 236.456C30.0549 236.087 24.6517 233.491 20.3827 228.736C16.1528 224.023 13.8368 218.028 13.492 212.035" stroke="#1C186C" stroke-width="4.63957" stroke-linecap="round" stroke-linejoin="round"/>
<path d="M11.2691 210.641L13.6703 210.002L38.0335 203.5C41.3131 202.626 44.1785 205.84 43.3549 209.477L41.6293 217.18L41.5116 217.672L40.0017 224.369L39.8644 225.011L37.3152 236.244L36.6877 238.983C36.0994 241.614 33.7752 243.303 31.3947 242.872C25.5409 241.817 20.0406 238.858 15.6547 233.973C11.2882 229.132 8.66011 223.03 7.71079 216.544C7.32331 213.89 8.88743 211.281 11.2691 210.641Z" stroke="#1C186C" stroke-width="4.63957" stroke-linecap="round" stroke-linejoin="round"/>
<path d="M25.9762 217.506C24.2516 217.504 22.8519 219.055 22.8498 220.97C22.8478 222.884 24.2442 224.438 25.9687 224.44C27.6933 224.442 29.093 222.891 29.095 220.976C29.0971 219.061 27.7007 217.508 25.9762 217.506Z" stroke="#1C186C" stroke-width="4.63957" stroke-linecap="round" stroke-linejoin="round"/>
<path d="M37.5293 218.823C38.604 217.625 40.1462 217.242 41.5118 217.714L39.5508 226.444C38.8094 226.25 38.1072 225.864 37.5224 225.222C35.924 223.444 35.9271 220.576 37.5293 218.823Z" stroke="#1C186C" stroke-width="4.63957" stroke-linecap="round" stroke-linejoin="round"/>
<path d="M35.0834 206.622C35.3748 207.863 35.0806 209.233 34.2208 210.195C32.9117 211.649 30.804 211.646 29.4979 210.19C29.0691 209.718 28.777 209.14 28.641 208.519" stroke="#1C186C" stroke-width="4.63957" stroke-linecap="round" stroke-linejoin="round"/>
<path d="M672.904 144.306L692.912 122.413C695.042 120.082 695.046 116.316 692.921 113.981C690.797 111.646 687.362 111.642 685.232 113.972L665.224 135.866C663.094 138.196 663.09 141.963 665.215 144.298C667.34 146.633 670.775 146.637 672.904 144.306Z" stroke="#1C186C" stroke-width="4.63957" stroke-linecap="round" stroke-linejoin="round"/>
<path d="M688.72 119.498C686.414 122.02 685.596 121.121 683.271 123.644C680.965 126.166 681.784 127.066 679.478 129.61C677.172 132.133 676.334 131.234 674.028 133.757C671.723 136.279 672.542 137.201 670.236 139.723" stroke="#1C186C" stroke-width="4.63957" stroke-linecap="round" stroke-linejoin="round"/>
<path d="M679.81 146.84L695.207 129.992C697.767 127.191 697.771 122.675 695.218 119.869L670.598 146.809C673.133 149.636 677.27 149.641 679.81 146.84Z" stroke="#1C186C" stroke-width="4.63957" stroke-linecap="round" stroke-linejoin="round"/>
<path d="M678.327 111.44L662.93 128.288C660.37 131.089 660.365 135.604 662.919 138.411L687.538 111.471C685.004 108.644 680.867 108.639 678.327 111.44Z" stroke="#1C186C" stroke-width="4.63957" stroke-linecap="round" stroke-linejoin="round"/>
<path d="M17.3716 398.279L37.3797 376.386C39.5095 374.055 39.5135 370.288 37.3888 367.953C35.264 365.618 31.8292 365.615 29.6994 367.945L9.69128 389.839C7.56151 392.169 7.55746 395.936 9.68221 398.271C11.807 400.606 15.2418 400.61 17.3716 398.279Z" stroke="#1C186C" stroke-width="4.63957" stroke-linecap="round" stroke-linejoin="round"/>
<path d="M33.1868 373.471C30.8812 375.994 30.0625 375.094 27.7373 377.617C25.4317 380.14 26.2504 381.04 23.9448 383.584C21.6391 386.107 20.8009 385.207 18.4953 387.73C16.1897 390.253 17.0084 391.174 14.7027 393.697" stroke="#1C186C" stroke-width="4.63957" stroke-linecap="round" stroke-linejoin="round"/>
<path d="M24.2773 400.812L39.6742 383.965C42.2338 381.164 42.2387 376.648 39.6851 373.842L15.0657 400.781C17.5998 403.609 21.7372 403.613 24.2773 400.812Z" stroke="#1C186C" stroke-width="4.63957" stroke-linecap="round" stroke-linejoin="round"/>
<path d="M22.793 365.414L7.39609 382.261C4.83646 385.062 4.8316 389.578 7.38521 392.384L32.0046 365.445C29.4705 362.617 25.3331 362.613 22.793 365.414Z" stroke="#1C186C" stroke-width="4.63957" stroke-linecap="round" stroke-linejoin="round"/>
<path d="M89.852 145.135L109.86 123.241C111.99 120.91 111.994 117.144 109.869 114.809C107.744 112.474 104.31 112.47 102.18 114.8L82.1717 136.694C80.042 139.025 80.0379 142.791 82.1627 145.126C84.2874 147.461 87.7223 147.465 89.852 145.135Z" stroke="#1C186C" stroke-width="4.63957" stroke-linecap="round" stroke-linejoin="round"/>
<path d="M105.666 120.325C103.361 122.847 102.542 121.948 100.217 124.471C97.9112 126.993 98.7299 127.893 96.4243 130.437C94.1186 132.96 93.2804 132.061 90.9748 134.584C88.6692 137.106 89.4879 138.028 87.1822 140.55" stroke="#1C186C" stroke-width="4.63957" stroke-linecap="round" stroke-linejoin="round"/>
<path d="M96.7578 147.667L112.155 130.819C114.714 128.018 114.719 123.502 112.166 120.696L87.5462 147.635C90.0803 150.463 94.2177 150.468 96.7578 147.667Z" stroke="#1C186C" stroke-width="4.63957" stroke-linecap="round" stroke-linejoin="round"/>
<path d="M95.2729 112.268L79.8761 129.116C77.3164 131.916 77.3116 136.432 79.8652 139.238L104.485 112.299C101.95 109.471 97.8131 109.467 95.2729 112.268Z" stroke="#1C186C" stroke-width="4.63957" stroke-linecap="round" stroke-linejoin="round"/>
<path d="M776.581 192.977L796.097 192.998C799.571 193.001 802.378 196.086 802.374 199.896L802.37 204.005L770.285 203.97L770.29 199.861C770.294 196.052 773.107 192.973 776.581 192.977Z" stroke="#1C186C" stroke-width="4.63957" stroke-linecap="round" stroke-linejoin="round"/>
<path d="M771.274 210.564L801.368 210.596C803.027 210.598 804.375 209.123 804.377 207.304C804.379 205.485 803.034 204.006 801.375 204.005L771.281 203.972C769.623 203.97 768.274 205.446 768.272 207.265C768.27 209.084 769.615 210.562 771.274 210.564Z" stroke="#1C186C" stroke-width="4.63957" stroke-linecap="round" stroke-linejoin="round"/>
<path d="M785.267 228.17L787.336 228.173C795.63 228.182 802.352 220.827 802.362 211.731L802.363 210.597L770.278 210.562L770.277 211.697C770.267 220.792 776.973 228.162 785.267 228.17Z" stroke="#1C186C" stroke-width="4.63957" stroke-linecap="round" stroke-linejoin="round"/>
<path d="M802.587 203.47C801.827 202.571 801.281 201.35 799.857 201.349C798.432 201.347 797.884 202.567 797.122 203.465" stroke="#1C186C" stroke-width="4.63957" stroke-linecap="round" stroke-linejoin="round"/>
<path d="M784.26 203.451C783.5 202.551 782.955 201.331 781.53 201.329C780.086 201.328 779.538 202.547 778.776 203.445" stroke="#1C186C" stroke-width="4.63957" stroke-linecap="round" stroke-linejoin="round"/>
<path d="M772.338 201.341C773.763 201.342 774.308 202.563 775.068 203.462" stroke="#1C186C" stroke-width="4.63957" stroke-linecap="round" stroke-linejoin="round"/>
<path d="M793.414 203.461C792.654 202.561 792.109 201.341 790.684 201.339C789.26 201.337 788.712 202.557 787.95 203.455" stroke="#1C186C" stroke-width="4.63957" stroke-linecap="round" stroke-linejoin="round"/>
<path d="M105.838 446.934L125.354 446.955C128.828 446.958 131.635 450.043 131.631 453.853L131.626 457.962L99.5419 457.927L99.5463 453.818C99.5504 450.009 102.364 446.93 105.838 446.934Z" stroke="#1C186C" stroke-width="4.63957" stroke-linecap="round" stroke-linejoin="round"/>
<path d="M100.53 464.521L130.624 464.553C132.283 464.555 133.631 463.08 133.633 461.261C133.635 459.442 132.29 457.964 130.631 457.962L100.538 457.929C98.8787 457.928 97.5305 459.403 97.5285 461.222C97.5265 463.041 98.8716 464.519 100.53 464.521Z" stroke="#1C186C" stroke-width="4.63957" stroke-linecap="round" stroke-linejoin="round"/>
<path d="M114.524 482.128L116.593 482.13C124.887 482.139 131.608 474.784 131.618 465.688L131.619 464.554L99.5349 464.52L99.5337 465.654C99.5239 474.75 106.23 482.119 114.524 482.128Z" stroke="#1C186C" stroke-width="4.63957" stroke-linecap="round" stroke-linejoin="round"/>
<path d="M131.841 457.429C131.081 456.529 130.536 455.309 129.111 455.307C127.686 455.305 127.138 456.525 126.376 457.423" stroke="#1C186C" stroke-width="4.63957" stroke-linecap="round" stroke-linejoin="round"/>
<path d="M113.516 457.409C112.756 456.509 112.211 455.288 110.786 455.287C109.342 455.285 108.794 456.505 108.032 457.403" stroke="#1C186C" stroke-width="4.63957" stroke-linecap="round" stroke-linejoin="round"/>
<path d="M101.594 455.298C103.018 455.299 103.564 456.52 104.324 457.419" stroke="#1C186C" stroke-width="4.63957" stroke-linecap="round" stroke-linejoin="round"/>
<path d="M122.668 457.419C121.908 456.519 121.363 455.298 119.938 455.297C118.514 455.295 117.966 456.515 117.204 457.413" stroke="#1C186C" stroke-width="4.63957" stroke-linecap="round" stroke-linejoin="round"/>
<path d="M178.332 179.495L197.848 179.515C201.322 179.519 204.129 182.604 204.125 186.414L204.121 190.523L172.036 190.488L172.04 186.379C172.045 182.57 174.858 179.491 178.332 179.495Z" stroke="#1C186C" stroke-width="4.63957" stroke-linecap="round" stroke-linejoin="round"/>
<path d="M173.024 197.081L203.118 197.113C204.777 197.115 206.125 195.639 206.127 193.82C206.129 192.001 204.784 190.523 203.125 190.521L173.031 190.489C171.372 190.487 170.024 191.962 170.022 193.782C170.02 195.601 171.365 197.079 173.024 197.081Z" stroke="#1C186C" stroke-width="4.63957" stroke-linecap="round" stroke-linejoin="round"/>
<path d="M187.018 214.688L189.086 214.69C197.381 214.699 204.102 207.344 204.112 198.249L204.113 197.115L172.029 197.08L172.027 198.214C172.018 207.31 178.723 214.679 187.018 214.688Z" stroke="#1C186C" stroke-width="4.63957" stroke-linecap="round" stroke-linejoin="round"/>
<path d="M204.335 189.988C203.575 189.089 203.03 187.868 201.605 187.867C200.181 187.865 199.633 189.084 198.871 189.982" stroke="#1C186C" stroke-width="4.63957" stroke-linecap="round" stroke-linejoin="round"/>
<path d="M186.011 189.969C185.251 189.069 184.705 187.848 183.281 187.847C181.837 187.845 181.289 189.065 180.527 189.963" stroke="#1C186C" stroke-width="4.63957" stroke-linecap="round" stroke-linejoin="round"/>
<path d="M174.088 187.858C175.513 187.86 176.058 189.08 176.818 189.98" stroke="#1C186C" stroke-width="4.63957" stroke-linecap="round" stroke-linejoin="round"/>
<path d="M195.163 189.978C194.403 189.079 193.858 187.858 192.433 187.857C191.008 187.855 190.461 189.075 189.699 189.973" stroke="#1C186C" stroke-width="4.63957" stroke-linecap="round" stroke-linejoin="round"/>
</g>
</svg>
